<svg id="Bottoms" xmlns="http://www.w3.org/2000/svg" viewBox="0 0 1000 1000"><defs><style>.cls-1{fill:#1c1e23;}.cls-1,.cls-2{stroke:#000;stroke-miterlimit:10;stroke-width:2.98px;}.cls-2{fill:none;}</style></defs><g id="Black_Cargo" data-name="Black Cargo"><path class="cls-1" d="M548.5,686.5l-13,162-4,8,6,23-8,35-63-2-5-197-13,197h-61l-10-62,5-17-13-149s69.45,14.88,93,15C484.24,699.61,548.5,686.5,548.5,686.5Z"/><path class="cls-1" d="M372.5,722.5s17-4,15-23"/><path class="cls-1" d="M531.5,704.5s4.67,16.24,14.83,12.12"/><polyline class="cls-2" points="376.5 764.5 399.5 764.5 403.5 839.5 381.76 838.52"/><line class="cls-2" x1="379.86" y1="799.48" x2="401.5" y2="789.5"/><polyline class="cls-2" points="542 769.5 519 769.5 515 844.5 536.74 843.52"/><line class="cls-2" x1="538.64" y1="804.48" x2="517" y2="794.5"/></g></svg>