<svg id="Bottoms" xmlns="http://www.w3.org/2000/svg" viewBox="0 0 1000 1000"><defs><style>.cls-1,.cls-2,.cls-5{fill:#1c2223;}.cls-1,.cls-4,.cls-7{stroke:#000;}.cls-1,.cls-2,.cls-4,.cls-6,.cls-7,.cls-8{stroke-miterlimit:10;}.cls-1,.cls-2,.cls-4,.cls-6{stroke-width:3.26px;}.cls-2{stroke:#705721;}.cls-3,.cls-6,.cls-8{fill:#9b9b9b;}.cls-4,.cls-7{fill:none;}.cls-6,.cls-8{stroke:#9b9b9b;}.cls-7,.cls-8{stroke-width:2.69px;}</style></defs><g id="Cat_Skirt" data-name="Cat Skirt"><path class="cls-1" d="M556.33,683.34l15,215.69c-7.6,10.86-52.66,11.5-99.72,12.75-6,.16-12,5.64-18,5.65-48.61,0-94.51-5-98.39-15.21l15.86-218.15s70.3,14.26,93.85,14.14C487.93,698.1,556.33,683.34,556.33,683.34Z"/><path class="cls-2" d="M395.18,695s-6.65,22.31-19.95,19.12"/><g id="cat"><path class="cls-3" d="M368.58,720.53s56.51,41.44,63.16,63.75l16.62-15.94v31.88s19.95,51,0,54.19,3.33,38.25,3.33,38.25,10,12.75,0,12.75-10,3.19-16.62-6.38-6.65-28.68-16.62-25.5-3.33,28.69-3.33,28.69-10,9.56-23.27,0,3.33-28.69,3.33-28.69S362.72,862.6,359,853.72"/><polyline class="cls-4" points="378.55 816.16 378.55 793.84 395.18 803.4"/><ellipse class="cls-5" cx="401.82" cy="836.88" rx="9.97" ry="7.97"/><ellipse class="cls-5" cx="436.73" cy="827.31" rx="11.64" ry="7.97"/><line class="cls-6" x1="400.16" y1="827.31" x2="403.49" y2="846.44"/><line class="cls-6" x1="435.48" y1="818.81" x2="438.81" y2="837.94"/></g><g id="cat-2" data-name="cat"><path class="cls-3" d="M554.43,711S507,744.77,501.36,762.93l-14-13V775.9s-16.75,41.51,0,44.1-2.79,31.13-2.79,31.13-8.38,10.38,0,10.38,8.38,2.6,14-5.19,5.58-23.35,14-20.75,2.79,23.35,2.79,23.35,8.38,7.78,19.56,0-2.8-23.35-2.8-23.35,27.27-8.9,30.39-16.12"/><polyline class="cls-7" points="546.05 788.87 546.05 770.71 532.08 778.49"/><ellipse class="cls-5" cx="526.5" cy="805.73" rx="8.38" ry="6.49"/><ellipse class="cls-5" cx="497.17" cy="797.95" rx="9.78" ry="6.49"/><line class="cls-8" x1="527.89" y1="797.95" x2="525.1" y2="813.52"/><line class="cls-8" x1="498.22" y1="791.03" x2="495.42" y2="806.6"/></g><path class="cls-4" d="M556.33,683.34l15,215.69c-7.6,10.86-52.66,11.5-99.72,12.75-6,.16-12,5.64-18,5.65-48.61,0-94.51-5-98.39-15.21l15.86-218.15s70.3,14.26,93.85,14.14C487.93,698.1,556.33,683.34,556.33,683.34Z"/></g></svg>