<svg xmlns="http://www.w3.org/2000/svg" viewBox="0 0 1000 1000"><defs><style>.cls-1,.cls-4{fill:#b3b3b3;}.cls-1,.cls-3,.cls-4,.cls-5{stroke:#000;}.cls-1,.cls-2,.cls-3,.cls-5{stroke-miterlimit:10;stroke-width:3.26px;}.cls-2{fill:#1b1464;stroke:#f2f2f2;}.cls-3{fill:none;}.cls-4{stroke-linejoin:round;stroke-width:3.26px;}</style></defs><g id="Plush"><path class="cls-1" d="M698,791.5h12s8-6-12-31"/><path class="cls-1" d="M664.36,818.48l17.64,25s18,8,30-3-33-34-33-34"/><path class="cls-1" d="M702,770.5a50,50,0,0,1-100,0c0-27.61,22.39-58,50-58S702,742.89,702,770.5Z"/><path class="cls-2" d="M617.5,731.5s57,61,82,50c0,0-5,18-13,23l-8,5s-53-43-65-71Z"/><path class="cls-1" d="M637.88,747.9,636.26,780s6.33,12,17.24,6.54,3.68-35.84,3.68-35.84"/><path class="cls-3" d="M702,770.5a50,50,0,0,1-100,0c0-27.61,22.39-58,50-58S702,742.89,702,770.5Z"/><path class="cls-1" d="M621,805.5l9,36s7,9,22,4-14-44-14-44"/><polyline class="cls-4" points="681.5 677.5 690.5 673.5 693.5 684.5"/><path class="cls-1" d="M658,716.5s54,31,62,48,24,5,24,5,12-7-8-37c-16.52-24.78-46.13-60.29-67.66-56.28-1.58.3-9.35-4.46-10.84-3.72-2.78,1.39.86,8.85-1.5,12C638,708.5,658,716.5,658,716.5Z"/><ellipse class="cls-5" cx="673" cy="698.5" rx="5.5" ry="3"/></g></svg>