<svg xmlns="http://www.w3.org/2000/svg" viewBox="0 0 1000 1000"><defs><style>.cls-1,.cls-2{fill:#ffd8ca;}.cls-1,.cls-2,.cls-3,.cls-4,.cls-5{stroke:#000;}.cls-1,.cls-3,.cls-4,.cls-5{stroke-miterlimit:10;}.cls-1,.cls-2,.cls-3,.cls-4{stroke-width:3.26px;}.cls-2{stroke-linejoin:round;}.cls-3{fill:#732d00;}.cls-4{fill:none;}.cls-5{fill:#49350d;stroke-width:3.52px;}</style></defs><g id="Layer_4" data-name="Layer 4"><path class="cls-1" d="M280.49,256.22S234,262.6,234,291.29s10,60.56,56.51,60.56"/><rect class="cls-1" x="433.41" y="415.61" width="56.51" height="31.88"/><polygon class="cls-1" points="370.24 680.18 400.16 893.75 440.05 900.12 446.7 686.55 370.24 680.18"/><polygon class="cls-2" points="410.13 527.17 287.13 645.11 263.87 622.8 396.84 450.67 410.13 527.17"/><ellipse class="cls-1" cx="252.23" cy="659.46" rx="38.23" ry="36.66"/><path class="cls-1" d="M386.86,932c0-26.41,14.14-47.81,31.59-47.81S450,905.59,450,932Z"/><path class="cls-1" d="M647.35,259.41s46.54,6.38,46.54,35.07S683.92,355,637.38,355"/><path class="cls-1" d="M463.32,431.54c47.28,0,103.55-7.16,139.63-31.87,46.54-31.88,53.19-94.62,53.19-153,0-49-13.59-106.22-43.22-140.25-34.72-39.87-93.14-60.57-149.6-60.57h3.33c-56.46,0-114.88,20.7-149.6,60.57-29.63,34-43.21,91.2-43.21,140.25,0,58.39,6.65,121.13,53.19,153,36.08,24.71,92.34,31.87,139.62,31.87"/><polygon class="cls-1" points="549.76 673.8 519.84 900.12 479.95 893.75 473.3 680.18 549.76 673.8"/><polygon class="cls-2" points="509.87 520.8 632.87 638.74 656.13 616.43 523.16 444.29 509.87 520.8"/><ellipse class="cls-1" cx="667.77" cy="653.08" rx="38.23" ry="36.66"/><path class="cls-1" d="M466.65,932c0-26.41,14.14-47.81,31.58-47.81s31.58,21.4,31.58,47.81Z"/><path class="cls-1" d="M440.05,437.92l-43.21,12.75L353.62,677s109.7,51,216.08,0l-46.54-232.7-39.89-6.37Z"/></g><g id="Layer_5" data-name="Layer 5"><polygon class="cls-3" points="464.99 261.51 451.69 318.89 478.28 318.89 464.99 261.51"/><path class="cls-4" d="M348.64,303s-10-47.82,10-63.75,39.89-6.38,39.89-6.38,23.27,12.75,13.3,63.75"/><ellipse class="cls-5" cx="388.53" cy="267.89" rx="23.27" ry="31.88"/><path class="cls-4" d="M581.34,303s10-47.82-10-63.75-39.89-6.38-39.89-6.38-23.27,12.75-13.29,63.75"/><ellipse class="cls-5" cx="541.45" cy="267.89" rx="23.27" ry="31.88"/><path d="M428.32,351a80,80,0,0,0,60.61,5,75.36,75.36,0,0,0,16-7.25c3.58-2.16.31-7.8-3.28-5.62-16.33,9.87-36.59,12.53-55,7.95a67.47,67.47,0,0,1-15.1-5.69,3.34,3.34,0,0,0-4.46,1.17,3.3,3.3,0,0,0,1.17,4.45Z"/></g></svg>