<svg xmlns="http://www.w3.org/2000/svg" viewBox="0 0 1000 1000"><defs><style>.cls-1,.cls-2,.cls-3,.cls-4{fill:#666;stroke:#000;}.cls-1,.cls-2,.cls-4{stroke-linejoin:round;}.cls-1,.cls-3{stroke-width:3.26px;}.cls-2{stroke-width:3.19px;}.cls-3{stroke-miterlimit:10;}.cls-4{stroke-width:3px;}</style></defs><g id="Tops"><g id="h_an_m" data-name="h an m"><polygon class="cls-1" points="649.76 599.95 664.13 615.71 627.57 647.59 610.5 632.53 649.76 599.95"/><polygon class="cls-2" points="509.55 520.55 610.61 637.8 655.61 599.86 522.41 444.67 509.55 520.55"/><polygon class="cls-1" points="269.93 605.95 255.55 621.71 292.12 653.59 309.19 638.53 269.93 605.95"/><polygon class="cls-2" points="410.13 526.55 309.08 643.8 264.08 605.86 397.28 450.67 410.13 526.55"/><path class="cls-3" d="M461.66,471.89l-64.82-21.22L353.62,677s109.7,51,216.08,0l-46.54-232.7-38.23,18Z"/><polygon class="cls-2" points="388.71 424.31 378.55 436.83 391.85 452.77 461.66 471.89 422 429.63 388.71 424.31"/><polygon class="cls-2" points="535.76 425.72 544.77 436.83 531.47 452.77 461.66 471.89 501.34 430.62 535.76 425.72"/><path class="cls-4" d="M380.5,685.5l1-18c17,2,29-22,29-22l108-3s3,27,21,26l5,17S474.5,717.5,380.5,685.5Z"/></g></g></svg>