<svg xmlns="http://www.w3.org/2000/svg" viewBox="0 0 1000 1000"><defs><style>.cls-1,.cls-2{fill:#fff;stroke:#000;stroke-linecap:round;stroke-linejoin:round;}.cls-1{stroke-width:3.43px;}.cls-2{stroke-width:3.26px;}.cls-3{fill:#ff7bac;}</style></defs><g id="Tops"><g id="Kiss"><polygon class="cls-1" points="396.5 451.5 336 494.21 361.8 577.08 376.55 567.52 396.5 451.5"/><polygon class="cls-1" points="524 444.5 587.17 493.68 561.36 576.56 543.95 560.52 524 444.5"/><path class="cls-2" d="M439.05,471.5c-11.46-2.67-42.21-20.83-42.21-20.83L353.62,677s109.7,51,216.08,0l-46.54-232.7S494,468,482.27,471.5C471.93,474.63,449.58,474,439.05,471.5Z"/><path class="cls-3" d="M442.19,555.73c-3.65-1.86-19.45-4.57-23.47-5.25s-8.46,0-11.49,2.81c-2.33,2.15-3.57,5.26-4.66,8.28-3.19,8.84-5.75,18-9.79,26.43S383,604.43,375,609.09c4,5.18,11.64,6,17.84,4.09s11.53-5.91,17.21-9.09c3.26-1.82,6.68-3.38,9.7-5.6,3.78-2.79,6.79-6.52,9.85-10.13,10.37-12.27,22.63-24.22,38.14-27.53,6.26-1.34,12.72-1.18,19.11-1.35,10.28-.28,20.72-1.5,30.13-5.75s17.75-11.86,21.07-21.83l-17.85,1.69a95.25,95.25,0,0,1-14.71.62c-8.55-.54-16.78-3.39-25.22-5s-17.63-1.69-25,2.79c-9.53,5.8-10.34,17.1-13.09,23.68"/><path d="M442.89,554.52a28.16,28.16,0,0,0-5.69-1.82c-2.72-.67-5.46-1.24-8.21-1.77-2.49-.49-5-.94-7.49-1.38a25.66,25.66,0,0,0-7.76-.55,13.1,13.1,0,0,0-9,5c-2.35,3.11-3.48,7.06-4.73,10.7-2.82,8.21-5.33,16.6-9.3,24.36-3.82,7.48-9.05,14.45-16.38,18.78a1.41,1.41,0,0,0-.28,2.19c3.49,4.34,9.32,5.86,14.69,5.32,6.33-.64,11.86-4,17.18-7.21,2.89-1.77,5.83-3.42,8.82-5a41.19,41.19,0,0,0,8.73-5.95c4.79-4.43,8.64-9.84,13.1-14.59,8.45-9,18.49-17.41,30.8-20.29,7.12-1.66,14.52-1.24,21.78-1.55a88.13,88.13,0,0,0,21-3.07C523,554,534.94,545.36,539.4,532.27a1.4,1.4,0,0,0-1.35-1.76c-8.86.83-17.77,2-26.67,2.35a57.58,57.58,0,0,1-12.91-1c-4.15-.78-8.23-1.86-12.33-2.82-7.46-1.73-15.2-3-22.82-1.54a23.64,23.64,0,0,0-16.15,10.88c-3.16,5.27-4,11.33-6.33,16.94-.68,1.65,2,2.37,2.69.74,1.92-4.67,2.72-9.73,5-14.28a20.83,20.83,0,0,1,14.37-11.34c7.3-1.73,14.9-.47,22.08,1.18,7.93,1.83,15.78,4.05,24,4,4.85,0,9.69-.57,14.51-1l14.62-1.38-1.34-1.76c-3.81,11.18-13.86,19-24.74,22.69a77,77,0,0,1-20.13,3.65c-7,.44-14.15.06-21.16,1-12.12,1.7-22.49,8.52-31.21,16.8a171.44,171.44,0,0,0-12.57,13.7,54.21,54.21,0,0,1-7.09,7.28,52.66,52.66,0,0,1-8.49,5.13c-6.33,3.37-12.21,8.11-19.18,10.12-5.59,1.6-12.31.94-16.16-3.83l-.28,2.18c13.6-8,19.72-23.43,24.55-37.67,1.34-3.94,2.6-7.92,4.08-11.82,1.27-3.36,3-6.66,6.46-8.18,4.73-2.08,10.4-.34,15.24.57,3,.57,6.06,1.17,9.07,1.87a31.35,31.35,0,0,1,6.38,1.87c1.61.79,3-1.61,1.41-2.41Z"/><path class="cls-3" d="M404.46,625c21.09,9.31,45.11,7.51,67.92,4.76,8.63-1,17.33-2.2,25.48-5.3s15.79-8.33,20.32-15.93c2.72-4.57,4.22-9.78,5.68-14.93,3.91-13.72,7.85-27.66,8-42-3.64-.5-6.91,2.09-9.69,4.53a84,84,0,0,0-9.43,9.15c-6.37,7.57-10.07,17.25-16.82,24.47-6.26,6.7-14.7,10.78-23.06,14.34-6.25,2.65-12.63,5.12-19.31,6.17-10.32,1.62-20.85-.2-31.28.4A67.43,67.43,0,0,0,402.21,615a5.66,5.66,0,0,0-2.38,1.42c-1.27,1.49-.75,3.95.6,5.36a11.62,11.62,0,0,0,5.12,2.64"/><path d="M403.76,626.23c22.14,9.69,46.87,7.63,70.24,4.76,11.64-1.43,23.64-3.37,33.66-9.89a37.42,37.42,0,0,0,11.09-10.83c3.21-4.93,4.86-10.66,6.45-16.27,3.94-13.82,7.85-27.85,8-42.33a1.42,1.42,0,0,0-1.39-1.39c-5.51-.59-10,4.28-13.73,7.64a62.86,62.86,0,0,0-10.79,12.46c-3,4.58-5.53,9.42-8.7,13.88a42.62,42.62,0,0,1-11.48,11,118.23,118.23,0,0,1-31.26,13.18c-12.16,2.6-24.63-.19-36.89,1.12a71,71,0,0,0-10,1.81q-2.39.62-4.72,1.4a21,21,0,0,0-4.21,1.67c-2.45,1.49-2.88,4.44-1.63,6.88s4.19,3.6,6.76,4.42c1.71.54,2.44-2.14.74-2.69-2.07-.66-4.9-1.5-5.36-4-.52-2.69,3.45-3.31,5.33-3.92a66.35,66.35,0,0,1,16.86-3.11c11.63-.59,23.29,1.54,34.79-1.12a95.94,95.94,0,0,0,15.59-5.43,105.93,105.93,0,0,0,13.65-6.71,46.16,46.16,0,0,0,11.78-9.91,101.45,101.45,0,0,0,8.31-12.49,67.58,67.58,0,0,1,10.57-14.07c2.14-2.08,4.38-4.07,6.66-6s4.73-3.63,7.76-3.31l-1.4-1.39c-.16,12.44-3.16,24.57-6.5,36.49-1.59,5.69-3,11.61-5.52,17a32.86,32.86,0,0,1-9.61,11.77c-9,6.91-20.29,9.37-31.27,10.86a266.44,266.44,0,0,1-34.66,2.86c-12.85,0-25.87-1.59-37.74-6.79-1.62-.71-3,1.69-1.4,2.41Z"/></g></g></svg>