<svg xmlns="http://www.w3.org/2000/svg" viewBox="0 0 1000 1000"><defs><style>.cls-1{fill:#fff;stroke-width:3.52px;}.cls-1,.cls-2,.cls-3{stroke:#000;stroke-linejoin:round;}.cls-2,.cls-3{fill:none;}.cls-2{stroke-width:3.19px;}.cls-3{stroke-width:3.13px;}</style></defs><g id="Bottoms"><g id="white_skirt" data-name="white skirt"><path class="cls-1" d="M370.5,684.5,361.5,913s44,4.68,70-5.86,53,1.17,53,1.17,63,12.89,77,0l-13-221.43S483,700.9,460,700C430,698.83,370.5,684.5,370.5,684.5Z"/><path class="cls-2" d="M364.5,838.5s42.35,4,67.37-5,51,1,51,1c-6.3-1.14,59.23,12.14,74.11,0"/><path class="cls-3" d="M367.5,752.5s40.59,4,64.57-5,48.9,1,48.9,1c-6-1.14,56.77,12.14,71,0"/></g></g></svg>