<svg xmlns="http://www.w3.org/2000/svg" viewBox="0 0 1000 1000"><defs><style>.cls-1,.cls-2,.cls-3{fill:#fff;stroke:#000;stroke-miterlimit:10;}.cls-1,.cls-2{stroke-width:2.51px;}.cls-2{stroke-linecap:round;}.cls-3{stroke-width:1.26px;}</style></defs><g id="earrings"><path class="cls-1" d="M657.6,350s2.64-12-5.28-12-2.64,14.35-2.64,14.35-3.93,2.39-3.93,8.36,6.49,10.76,14.5,10.76h1.32c8,0,14.51-4.81,14.51-10.76s-3.94-8.36-3.94-8.36S677.42,338,669.5,338s-5.27,12-5.27,12Z"/><line class="cls-2" x1="652.67" y1="357.14" x2="652.67" y2="361.92"/><line class="cls-2" x1="668.5" y1="357.14" x2="668.5" y2="361.92"/><line class="cls-3" x1="658.28" y1="364.31" x2="663.55" y2="366.7"/><line class="cls-3" x1="658.28" y1="366.7" x2="663.55" y2="364.31"/><path class="cls-1" d="M263.6,350s2.64-12-5.28-12-2.64,14.35-2.64,14.35-3.93,2.39-3.93,8.36,6.49,10.76,14.5,10.76h1.32c8,0,14.51-4.81,14.51-10.76s-3.94-8.36-3.94-8.36S283.42,338,275.5,338s-5.27,12-5.27,12Z"/><line class="cls-2" x1="258.67" y1="357.14" x2="258.67" y2="361.92"/><line class="cls-2" x1="274.5" y1="357.14" x2="274.5" y2="361.92"/><line class="cls-3" x1="264.28" y1="364.31" x2="269.55" y2="366.7"/><line class="cls-3" x1="264.28" y1="366.7" x2="269.55" y2="364.31"/></g></svg>