<svg xmlns="http://www.w3.org/2000/svg" viewBox="0 0 1000 1000"><defs><style>.cls-1,.cls-2{fill:#333;stroke-linecap:round;stroke-linejoin:round;}.cls-1,.cls-2,.cls-3,.cls-4,.cls-5,.cls-6{stroke:#000;}.cls-1{stroke-width:2.4px;}.cls-2{stroke-width:2.36px;}.cls-3{fill:#ffd8ca;}.cls-3,.cls-4,.cls-5,.cls-6{stroke-miterlimit:10;}.cls-3,.cls-4,.cls-5{stroke-width:3.26px;}.cls-4{fill:#732d00;}.cls-5{fill:none;}.cls-6{fill:#49350d;stroke-width:3.52px;}</style></defs><g id="Hair"><g id="Shiort"><path class="cls-1" d="M391,466c-135-6-127-210-127-210l35,6s86,191,100,190c0,0-11,4-9,7S391,466,391,466Z"/><path class="cls-2" d="M540.91,470c135-5.8,127-203,127-203l-35,5.8s-86,184.63-100,183.67c0,0,11,3.86,9,6.76S540.91,470,540.91,470Z"/><path class="cls-3" d="M280.49,256.22S234,262.6,234,291.29s10,60.56,56.51,60.56"/><path class="cls-3" d="M647.35,259.41s46.54,6.38,46.54,35.07S683.92,355,637.38,355"/><path class="cls-3" d="M463.32,431.54c47.28,0,103.55-7.16,139.63-31.87,46.54-31.88,53.19-94.62,53.19-153,0-49-13.59-106.22-43.22-140.25-34.72-39.87-93.14-60.57-149.6-60.57h3.33c-56.46,0-114.88,20.7-149.6,60.57-29.63,34-43.21,91.2-43.21,140.25,0,58.39,6.65,121.13,53.19,153,36.08,24.71,92.34,31.87,139.62,31.87"/><polygon class="cls-4" points="464.99 261.51 451.69 318.89 478.28 318.89 464.99 261.51"/><path class="cls-5" d="M348.64,303s-10-47.82,10-63.75,39.89-6.38,39.89-6.38,23.27,12.75,13.3,63.75"/><ellipse class="cls-6" cx="388.53" cy="267.89" rx="23.27" ry="31.88"/><path class="cls-5" d="M581.34,303s10-47.82-10-63.75-39.89-6.38-39.89-6.38-23.27,12.75-13.29,63.75"/><ellipse class="cls-6" cx="541.45" cy="267.89" rx="23.27" ry="31.88"/><path d="M428.32,351a80,80,0,0,0,60.61,5,75.36,75.36,0,0,0,16-7.25c3.58-2.16.31-7.8-3.28-5.62-16.33,9.87-36.59,12.53-55,7.95a67.47,67.47,0,0,1-15.1-5.69,3.34,3.34,0,0,0-4.46,1.17,3.3,3.3,0,0,0,1.17,4.45Z"/><path class="cls-1" d="M289,240s-6.87,10-15,16c-6.06,4.46-12.72,5.71-14,4-3-4,0-72,0-72C274,27,480,44,480,44l-6,62S346,96,341,197c-2.11,42.63-13.65,59.4-32.06,61.08C283.73,260.38,285,253,285,253s13-35,13-70c0,0-1,22.52-2,29C294.77,219.77,289,240,289,240Z"/><path class="cls-1" d="M637.67,243s6.86,10,15,16c6.06,4.46,12.72,5.71,14,4,3-4,0-72,0-72C652.67,30,480,44,480,44l-6,62s106.67-7,111.67,94c2.11,42.63,13.64,59.4,32.05,61.08,25.22,2.3,23.95-5.08,23.95-5.08s-13-35-13-70c0,0,1,22.52,2,29C631.89,222.77,637.67,243,637.67,243Z"/></g></g></svg>