<svg xmlns="http://www.w3.org/2000/svg" viewBox="0 0 1000 1000"><defs><style>.cls-1,.cls-2{fill:#fff;stroke:#000;stroke-linecap:round;stroke-linejoin:round;}.cls-1{stroke-width:3.43px;}.cls-2{stroke-width:3.26px;}.cls-3{fill:#42210b;}.cls-4{fill:#29abe2;}.cls-5{fill:#fbb03b;}.cls-6{fill:#8cc63f;}.cls-7{fill:#ff7bac;}</style></defs><g id="Tops"><g id="CMIYGL"><polygon class="cls-1" points="396.5 451.5 336 494.21 361.8 577.08 376.55 567.52 396.5 451.5"/><polygon class="cls-1" points="524 444.5 587.17 493.68 561.36 576.56 543.95 560.52 524 444.5"/><path class="cls-2" d="M439.05,471.5c-11.46-2.67-42.21-20.83-42.21-20.83L353.62,677s109.7,51,216.08,0l-46.54-232.7S494,468,482.27,471.5C471.93,474.63,449.58,474,439.05,471.5Z"/><g id="TEXT"><path class="cls-3" d="M413.05,523.15a6.8,6.8,0,0,0-5.65,2.15,6.73,6.73,0,0,0-1.43,6.36,9.07,9.07,0,0,0,9.26,6.56,8.07,8.07,0,0,0,6-3,1.34,1.34,0,0,0-.47-1.82,1.36,1.36,0,0,0-1.82.48c-1.62,2.11-5.21,2.14-7.36.91-2.37-1.35-4.31-4.78-2.49-7.31a4.3,4.3,0,0,1,4-1.64,1.34,1.34,0,0,0,1.33-1.33,1.36,1.36,0,0,0-1.33-1.33Z"/><path class="cls-3" d="M421.26,530.9c-.51-2-1-4-1.54-6a6.17,6.17,0,0,1-.25-1.28,3,3,0,0,1,.09-.91,1.4,1.4,0,0,1,1.16-.93,2.41,2.41,0,0,1,1.77.89c.69.69,1.31,1.46,1.95,2.19l4.07,4.65a1.35,1.35,0,0,0,1.88,0,1.37,1.37,0,0,0,0-1.89l-3.71-4.22c-1.12-1.29-2.23-3-3.8-3.74a4.09,4.09,0,0,0-4.93.72c-1.29,1.43-1.28,3.25-.85,5,.5,2.07,1.06,4.13,1.59,6.19a1.33,1.33,0,0,0,2.57-.71Z"/><path class="cls-3" d="M419.79,527.41a62.3,62.3,0,0,1,7.2-2.08,1.32,1.32,0,0,0,.92-1.63,1.34,1.34,0,0,0-1.63-.93,59.64,59.64,0,0,0-7.19,2.07,1.33,1.33,0,0,0,.7,2.57Z"/><path class="cls-3" d="M430.67,516.58a19.83,19.83,0,0,1,.74,6.37c0,2-.2,4.41.71,6.25s3.22,2.37,5.17,2.13a9,9,0,0,0,5.45-2.62c1.19-1.23-.69-3.12-1.88-1.88a6.28,6.28,0,0,1-4,1.89,3.24,3.24,0,0,1-2-.31,1.92,1.92,0,0,1-.61-1.41c-.52-3.72.24-7.49-1-11.13-.55-1.61-3.12-.92-2.56.71Z"/><path class="cls-3" d="M443.09,513.29a30.25,30.25,0,0,1,.41,6.79c0,2.14-.33,4.72.58,6.72,2.09,4.6,8,1.3,10.42-1.15,1.2-1.22-.68-3.1-1.88-1.88a10,10,0,0,1-4.16,2.56c-1.66.49-2.17-.69-2.26-2.16-.23-3.87.28-7.75-.55-11.59-.36-1.67-2.92-1-2.56.71Z"/><path class="cls-3" d="M462,525.06a46.71,46.71,0,0,1,4.82-13.72h-2.26a91.09,91.09,0,0,1,4.23,12.37,1.32,1.32,0,0,0,2.39.32q2.53-5.17,5.55-10.07l-2.4-.32c1.14,4.37,1.8,8.84,2.94,13.21a1.31,1.31,0,0,0,2.52-.7c-1.13-4.36-1.8-8.83-2.93-13.2a1.32,1.32,0,0,0-2.39-.31c-2,3.26-3.87,6.62-5.55,10.06l2.39.32a94.16,94.16,0,0,0-4.49-13,1.31,1.31,0,0,0-2.26,0,48.51,48.51,0,0,0-5.08,14.34c-.3,1.65,2.22,2.36,2.52.7Z"/><path class="cls-3" d="M479,516.3a18.69,18.69,0,0,1,2.59,6.28,31.39,31.39,0,0,0,1.8,6.83,1.31,1.31,0,0,0,2.26-1.32c-.95-2.1-1.13-4.45-1.64-6.67a20.74,20.74,0,0,0-2.74-6.44c-.91-1.42-3.17-.11-2.27,1.32Z"/><path class="cls-3" d="M482.37,517.29a22.77,22.77,0,0,1,9.4-.65,1.31,1.31,0,0,0,1.3-1.31,1.34,1.34,0,0,0-1.3-1.31,24.78,24.78,0,0,0-10.1.74,1.31,1.31,0,0,0,.7,2.53Z"/><path class="cls-3" d="M483.16,522.4a25.94,25.94,0,0,1,3.74-.14,24.78,24.78,0,0,1,3.64.37,1.31,1.31,0,0,0,.69-2.53,29.11,29.11,0,0,0-8.07-.32,1.31,1.31,0,0,0,0,2.62Z"/><path class="cls-3" d="M484.39,528.8q4.1.81,8.21,1.56a1.31,1.31,0,1,0,.69-2.52c-2.74-.51-5.47-1-8.21-1.57a1.31,1.31,0,1,0-.69,2.53Z"/><path class="cls-3" d="M501.09,518.34c.82,4.12.14,8.34-.53,12.43a1.32,1.32,0,0,0,.88,1.56,1.28,1.28,0,0,0,1.56-.89c.75-4.57,1.45-9.18.53-13.78a1.27,1.27,0,1,0-2.44.68Z"/><path class="cls-3" d="M506.74,522.35c-.09,4-.28,8.07-.58,12.09a1.28,1.28,0,0,0,1.26,1.27,1.29,1.29,0,0,0,1.27-1.27c.3-4,.49-8.06.58-12.09a1.27,1.27,0,0,0-2.53,0Z"/><path class="cls-3" d="M507.62,522.43a38.62,38.62,0,0,0,8.39,3.1,1.3,1.3,0,0,0,1.56-.89,1.29,1.29,0,0,0-.89-1.55,35.12,35.12,0,0,1-7.78-2.85,1.27,1.27,0,0,0-1.28,2.19Z"/><path class="cls-3" d="M508.29,528.34a9.62,9.62,0,0,0,3.2,1.25l3.5,1a1.26,1.26,0,1,0,.67-2.43l-3.38-1c-.53-.16-1.06-.3-1.59-.47l-.31-.11-.21-.08c.14.06.14.06,0,0a4.78,4.78,0,0,1-.61-.38,1.27,1.27,0,0,0-1.73.46,1.31,1.31,0,0,0,.45,1.73Z"/><path class="cls-3" d="M400.36,549.65q2.29,4.77,4.86,9.39a1.54,1.54,0,0,0,2,.54,1.93,1.93,0,0,0,.94-1.17,1.5,1.5,0,0,0-1-1.84,1.53,1.53,0,0,0-1.84,1l-.05.12.39-.67.1-.08,2.05.53q-2.56-4.62-4.86-9.38a1.5,1.5,0,0,0-2.05-.54,1.54,1.54,0,0,0-.54,2Z"/><path class="cls-3" d="M411.83,548.31c-1.72,2.8-3.53,5.55-5.15,8.4a8.61,8.61,0,0,0-.78,4.62l0,5.07a1.5,1.5,0,0,0,3,0l0-4.73c0-.77-.06-1.57,0-2.33a3.71,3.71,0,0,1,.68-1.64q2.42-3.94,4.84-7.87c1-1.65-1.58-3.16-2.59-1.52Z"/><path class="cls-3" d="M414.77,557.09a5,5,0,0,0-2,2.48,9.41,9.41,0,0,0-1.09,3.5,5,5,0,0,0,.74,3,4.17,4.17,0,0,0,3.16,1.84,5.85,5.85,0,0,0,3.31-.79,8,8,0,0,0,2.55-2c1.3-1.63,1.52-4,1.33-6a3.78,3.78,0,0,0-1.67-3.14c-1.24-.66-2.83-.43-4.17-.27a1.54,1.54,0,0,0-1.5,1.5c0,.73.67,1.59,1.5,1.5q.68-.09,1.35-.12l.63,0h.34s.41,0,.26,0,.21,0,.06,0,0,0,.07,0c-.23-.23-.08-.07,0,0s.05.15,0,0a2.12,2.12,0,0,0,.11.21s-.05-.23,0-.09.1.37.13.54c-.06-.3,0,.06,0,.17s0,.29,0,.44c0,.38,0,.76,0,1.15,0,.19,0,.39,0,.58s0,.3,0,0a1.55,1.55,0,0,1,0,.21,4.48,4.48,0,0,1-.11.5,2.76,2.76,0,0,1-.08.27s-.14.36-.07.22-.06.1-.08.13l-.11.19c-.13.23-.06.11,0,0a2.29,2.29,0,0,1-.21.23,4.59,4.59,0,0,1-.39.37c-.2.16.14-.1-.07,0a3.62,3.62,0,0,1-.32.22,9.26,9.26,0,0,1-1,.6,4.19,4.19,0,0,1-.95.31c-.17,0,0,0,0,0l-.3,0h-.29c.06,0,.25.06,0,0l-.21-.06s-.31-.13-.16-.05-.08-.06-.08-.06c-.35-.23.13.18-.13-.1l-.13-.14c-.15-.15.08.18,0,0s-.23-.44-.12-.17a4.48,4.48,0,0,1-.16-.52s-.05-.24,0-.06,0-.17,0-.21a5,5,0,0,1,.55-2.16,11.73,11.73,0,0,1,.63-1.22,1.76,1.76,0,0,1,.14-.23c.07-.11.11-.11,0,0l.18-.19c-.19.17,0,0,.13-.05a1.5,1.5,0,0,0,.54-2,1.54,1.54,0,0,0-2.05-.54Z"/><path class="cls-3" d="M423.41,558.69a12.85,12.85,0,0,0-.24,6.31,5.94,5.94,0,0,0,1.25,2.73,4.5,4.5,0,0,0,2.56,1.38,6.83,6.83,0,0,0,5.75-1.25,7.51,7.51,0,0,0,2.37-5.13,14.48,14.48,0,0,0-.27-3.66,3.25,3.25,0,0,0-.67-1.84,1.65,1.65,0,0,0-2.39-.07,1.5,1.5,0,1,0,2.12,2.12l.06,0-1.06.44H433l-.76-.2-.23-.3c-.19-.34-.26-.41-.2-.2a.8.8,0,0,0,.05.26l.12.63c.06.4.1.61.13,1a10.18,10.18,0,0,1,0,2.14,6.38,6.38,0,0,1-.23,1c0,.07,0,.13-.07.2s-.09.22,0,.08,0,.07,0,.08l-.12.25c-.07.12-.14.24-.22.36l-.15.23s-.15.19,0,.07l-.06.07-.15.15c-.11.11-.22.22-.35.33.19-.17-.12.08-.19.12l-.36.2,0,0-.19.07a5.07,5.07,0,0,1-.56.13c.18,0-.29,0-.35,0h-.5l-.44,0-.23,0c.17,0,.06,0,0,0s-.34-.07-.5-.12l-.21-.07s.18.09,0,0l-.19-.1s-.21-.13-.09-.05-.3-.31-.25-.24a2.71,2.71,0,0,0-.16-.29c0-.06-.07-.13-.1-.2s.07.17,0,0c-.11-.34-.2-.69-.28-1a9.86,9.86,0,0,1,.26-4.63,1.5,1.5,0,0,0-2.89-.8Z"/><path class="cls-3" d="M452.27,560.69a3.92,3.92,0,0,0-3.68-3.81,8.4,8.4,0,0,0-9.23,9.42c.26,3.47,2.24,6.57,5.71,7.51a7.65,7.65,0,0,0,8.58-3.5,7.88,7.88,0,0,0,1-2.37,4.62,4.62,0,0,0-.07-3.07c-.74-1.26-2.13-.89-3.31-.72s-2.31.36-3.47.57a1.51,1.51,0,0,0-1,1.84,1.53,1.53,0,0,0,1.84,1.05c.8-.14,1.6-.28,2.4-.4a10.1,10.1,0,0,1,2-.27l-.75-.2-.07,0-.38-.66c-.05-.14,0,.08,0,.13s0,.28,0,.4a3.93,3.93,0,0,1-.06.48,5.87,5.87,0,0,1-.39,1.23,5.16,5.16,0,0,1-1.71,2.05,4.61,4.61,0,0,1-4.84.17c-3.22-1.79-3.18-7-.71-9.29a5.78,5.78,0,0,1,3.16-1.32c.68-.1,2.05-.11,2,.81-.06,1.93,2.94,1.93,3,0Z"/><path class="cls-3" d="M452.88,557.19a31.37,31.37,0,0,1,1.14,6.66c.13,2.29-.25,4.62.18,6.89a1.5,1.5,0,0,0,2.9-.8,14.38,14.38,0,0,1-.05-3.28,30.61,30.61,0,0,0-.06-3.32,34.9,34.9,0,0,0-1.22-7,1.5,1.5,0,0,0-2.89.8Z"/><path class="cls-3" d="M454.85,558.87c2.75-.74,5.51-1.38,8.3-1.93a1.49,1.49,0,0,0,1.05-1.84,1.53,1.53,0,0,0-1.84-1.05c-2.79.54-5.56,1.19-8.31,1.93a1.5,1.5,0,0,0,.8,2.89Z"/><path class="cls-3" d="M455.69,566.34c1.07-.26,2.15-.5,3.23-.69.53-.1,1.06-.19,1.6-.26l.38-.06c.37-.05-.21,0,.12,0l.9-.11a1.66,1.66,0,0,0,1.06-.44,1.52,1.52,0,0,0,.44-1.06c0-.74-.67-1.6-1.5-1.5a54.16,54.16,0,0,0-7,1.24,1.51,1.51,0,0,0-1,1.84,1.52,1.52,0,0,0,1.84,1.05Z"/><path class="cls-3" d="M455.23,571.69a6.3,6.3,0,0,0,2.37,0l2.42-.28,4.76-.54a1.5,1.5,0,0,0,0-3l-4.58.52-2.24.26-1.06.12-.48,0h-.32c.14,0,.11,0-.07,0a1.5,1.5,0,1,0-.8,2.89Z"/><path class="cls-3" d="M465.86,557l10.19-2.22a1.51,1.51,0,0,0,1.05-1.84,1.53,1.53,0,0,0-1.85-1l-10.19,2.22a1.52,1.52,0,0,0-1.05,1.84,1.53,1.53,0,0,0,1.85,1.05Z"/><path class="cls-3" d="M473.3,565.86l-1.72-10.52a1.52,1.52,0,0,0-1.85-1.05,1.54,1.54,0,0,0-1.05,1.85l1.73,10.52a1.51,1.51,0,0,0,1.85,1.05,1.53,1.53,0,0,0,1-1.85Z"/><path class="cls-3" d="M481.31,550.85l2.54,11.44c.23,1,.45,2.16,1.7,2.3a10.66,10.66,0,0,0,2.94-.5l5.89-1.21a1.5,1.5,0,1,0-.8-2.89l-4,.83-2,.4-1,.2-.49.1c-.26.06-.56,0-.07.11l.66.39-.08-.1.39.66c-.6-2-.93-4.15-1.39-6.2l-1.4-6.32a1.5,1.5,0,0,0-2.9.79Z"/><path class="cls-3" d="M490.85,546.76c-2.44,1.21-3.21,4.25-3.3,6.76A5.78,5.78,0,0,0,489,557.8a7,7,0,0,0,3.4,1.79c2.84.68,6.14.58,8.42-1.44a5.42,5.42,0,0,0,1.82-3.6,6.75,6.75,0,0,0-1.42-4.35c-2-2.73-5.27-4.85-8.75-3.8-1.84.56-1.06,3.46.8,2.9s3.71.53,5,2a5.36,5.36,0,0,1,1.39,2.5,2.15,2.15,0,0,1-.55,1.91,3.74,3.74,0,0,1-2.21,1.19,8.23,8.23,0,0,1-3,0c-1.68-.28-3.25-.83-3.36-2.71a7.92,7.92,0,0,1,.41-3,3.69,3.69,0,0,1,.56-1.15,2.9,2.9,0,0,1,.34-.36,2.14,2.14,0,0,1,.5-.3,1.5,1.5,0,1,0-1.51-2.59Z"/><path class="cls-3" d="M508.14,543.44c-2.22-.89-4.33.85-5.25,2.74a7.15,7.15,0,0,0-.91,3.24,3.86,3.86,0,0,0,1.51,2.88,10.25,10.25,0,0,0,2.81,1.54,9.2,9.2,0,0,0,1.46.47c.61.12-.14,0,0-.07a.09.09,0,0,1,0-.07c0,.2,0,.25,0,.16a3.23,3.23,0,0,1-1.27,1.36,6.36,6.36,0,0,1-2.52,1.19,1.56,1.56,0,0,0-1.5,1.5c0,.73.69,1.61,1.5,1.5a9.63,9.63,0,0,0,5.56-2.82c1.38-1.49,1.92-4.23-.23-5.36-.84-.43-1.81-.56-2.66-1-.53-.26-1.57-.67-1.65-1.36a4.33,4.33,0,0,1,.83-2.24c.38-.62.87-1.06,1.55-.79a1.51,1.51,0,0,0,1.85-1,1.55,1.55,0,0,0-1.05-1.85Z"/><path class="cls-3" d="M510.92,545.42q5.69-1.35,11.29-3.07a1.53,1.53,0,0,0,1-1.84,1.52,1.52,0,0,0-1.85-1q-5.6,1.72-11.29,3.07a1.51,1.51,0,0,0-1.05,1.84,1.53,1.53,0,0,0,1.85,1Z"/><path class="cls-3" d="M514.6,544.39l2,13.34a1.51,1.51,0,0,0,1.84,1,1.54,1.54,0,0,0,1.05-1.85l-2-13.34a1.53,1.53,0,0,0-1.85-1.05,1.54,1.54,0,0,0-1,1.85Z"/></g><path class="cls-4" d="M396.81,519.46c1.85-2.61,5.12-3.81,8-4.89L403,512.72a34.52,34.52,0,0,1-4,9.94l2.74.36a49.43,49.43,0,0,1-2.24-11l-2.56,1.06c3.51,2.86,6.29,6.64,10.39,8.74a1.51,1.51,0,0,0,2.25-1.3c0-1.69-1.59-2.07-2.94-2.39L402.2,517a30.05,30.05,0,0,0-4.3-.87,6.59,6.59,0,0,0-2.17.15,6.33,6.33,0,0,1-1.74.53c-1.93-.09-1.93,2.91,0,3,1.17.06,2.11-.7,3.27-.71a13.69,13.69,0,0,1,3.22.57l3.45.83,1.86.45.8.19c.64.16.27.2.15-.08l-.21-.76v.15l2.26-1.29c-3.86-2-6.47-5.57-9.78-8.27a1.53,1.53,0,0,0-1.64-.31,1.48,1.48,0,0,0-.92,1.37,53,53,0,0,0,2.35,11.83,1.52,1.52,0,0,0,2.74.36,37.42,37.42,0,0,0,4.31-10.66c.24-1-.71-2.27-1.84-1.84-3.7,1.39-7.43,2.94-9.79,6.27a1.51,1.51,0,0,0,.54,2,1.52,1.52,0,0,0,2.05-.54Z"/><path class="cls-5" d="M419.65,507.55a18.76,18.76,0,0,1,6.44-1.38l-1.29-2.25c-1.76,2.7-3.42,5.48-5,8.31l2.74.36q-.88-5.61-1.35-11.26l-2.56,1.06,7.9,8.34-.38-1.46,0,.11.38-.66c.68-.18.87-.27.58-.27h0a2.08,2.08,0,0,0-.54-.11l-1.2-.25c-.79-.18-1.57-.37-2.36-.58-1.56-.43-3.11-.93-4.63-1.48a1.52,1.52,0,0,0-1.85,1,1.54,1.54,0,0,0,1.05,1.85,53.36,53.36,0,0,0,5.81,1.78c1,.24,1.94.47,2.92.64,1.18.21,2.36,0,2.77-1.27a1.49,1.49,0,0,0-.38-1.46l-7.91-8.34a1.51,1.51,0,0,0-2.56,1.06q.5,6,1.45,12.05c.21,1.3,2.17,1.42,2.75.36q2.32-4.25,5-8.31a1.52,1.52,0,0,0-1.3-2.26,21.64,21.64,0,0,0-7.24,1.48,1.56,1.56,0,0,0-1.05,1.85,1.52,1.52,0,0,0,1.85,1.05Z"/><path class="cls-6" d="M448.19,501.63l11.58-.47-1.06-2.56a66.13,66.13,0,0,0-7.72,7.15l2.56,1.06q.63-5.38,1.46-10.75l-2.75.36a49.66,49.66,0,0,0,4.91,9.25l2.05-2.05-9.38-4.21a1.56,1.56,0,0,0-2.06.54,1.52,1.52,0,0,0,.54,2.05l9.39,4.21a1.57,1.57,0,0,0,1.82-.24,1.5,1.5,0,0,0,.23-1.81,49.74,49.74,0,0,1-4.91-9.26,1.51,1.51,0,0,0-2.74.36q-.89,5.76-1.56,11.55c-.15,1.31,1.74,2,2.56,1.07a66.21,66.21,0,0,1,7.72-7.16c1-.82.16-2.61-1.06-2.56l-11.58.47a1.5,1.5,0,1,0,0,3Z"/><path class="cls-7" d="M478.84,501.87a48.18,48.18,0,0,0,8.79,1.05l-1.44-1.9c.07-.14.06-.13,0,0,.1-.11.1-.1,0,0a1.8,1.8,0,0,1-.2.19c.11-.09.09-.08-.05,0l-.45.25c-.05,0-.49.22-.25.12-.92.4-1.83.78-2.72,1.24a31.19,31.19,0,0,0-4.9,3.23l2.57,1.06a30.56,30.56,0,0,1,2.47-9.25l-1.3.74q-1-.84-.69-.3l.14.25c.08.18.17.35.25.52.19.38.36.76.53,1.14.29.67.55,1.38.79,2.08a31.09,31.09,0,0,1,1.19,4.77l2.5-1.46a79,79,0,0,0-8.39-7,1.51,1.51,0,0,0-2.05.54,1.53,1.53,0,0,0,.54,2.05,72.39,72.39,0,0,1,7.78,6.54,1.54,1.54,0,0,0,1.82.23,1.57,1.57,0,0,0,.69-1.69,30.21,30.21,0,0,0-1.51-5.69c-.36-1-.77-1.92-1.21-2.85s-1.08-2.26-2.38-2.13a1.5,1.5,0,0,0-1.29.74,34.73,34.73,0,0,0-2.88,10.77,1.48,1.48,0,0,0,.92,1.37,1.58,1.58,0,0,0,1.64-.31,27,27,0,0,1,5-3.1c1.7-.83,3.72-1.3,4.41-3.31a1.51,1.51,0,0,0-1.45-1.9,43.8,43.8,0,0,1-8-.94,1.54,1.54,0,0,0-1.85,1,1.52,1.52,0,0,0,1,1.84Z"/><path class="cls-4" d="M511.18,510a87.9,87.9,0,0,1,9.74.12l-1.45-1.9c0-.18.26-.25-.08-.05l-.74.43-1.69,1-3.27,1.91,2.21,1.69a71.32,71.32,0,0,0,1.77-7.89l-2.74.36a101.05,101.05,0,0,1,5.16,10.69l2.21-1.7c-2.07-1.19-4.11-2.42-6.11-3.71-1-.62-2-1.25-2.9-1.91a4.28,4.28,0,0,1-.85-.7s-.25-.3-.2-.22-.08-.15-.09-.18c-.12-.2,0,.16,0-.06,0-.06,0-.35,0-.14a1.54,1.54,0,0,0-1.5-1.5,1.51,1.51,0,0,0-1.5,1.5c.15,2.7,2.86,4,4.86,5.34q3.36,2.17,6.83,4.17a1.52,1.52,0,0,0,1.67-.11,1.48,1.48,0,0,0,.53-1.58,107.5,107.5,0,0,0-5.46-11.41c-.58-1.05-2.52-.94-2.74.36a70.85,70.85,0,0,1-1.78,7.89,1.52,1.52,0,0,0,2.21,1.7l3.83-2.24,1.87-1.09a2.72,2.72,0,0,0,1.46-1.74,1.53,1.53,0,0,0-1.45-1.9,87.9,87.9,0,0,0-9.74-.12,1.5,1.5,0,0,0,0,3Z"/><path class="cls-7" d="M383.57,545.93a54.49,54.49,0,0,1,12.8-3.34l-1.46-2.51a83.66,83.66,0,0,1-8.46,8.59l2.57,1.06A35.83,35.83,0,0,1,390.5,543l.9-3.35.49-1.84a6,6,0,0,1,.43-1.51l-.53.53.16-.08-.75.2h.18l-.76-.2c.3.15.56,1,.72,1.37.3.62.59,1.23.88,1.85.6,1.28,1.19,2.56,1.8,3.84a58.93,58.93,0,0,0,4,7.27l2.05-2a58.83,58.83,0,0,0-14.94-4.62,1.55,1.55,0,0,0-1.85,1,1.52,1.52,0,0,0,1.05,1.84,55.74,55.74,0,0,1,14.23,4.32,1.56,1.56,0,0,0,1.81-.23,1.52,1.52,0,0,0,.24-1.82,61.84,61.84,0,0,1-4.18-7.67c-.63-1.32-1.23-2.65-1.86-4-.54-1.16-1-2.8-2.1-3.57a2,2,0,0,0-2.19-.13,2.78,2.78,0,0,0-1,1.86L388,540.63a48.18,48.18,0,0,0-2,9.1c-.1,1.39,1.65,1.85,2.56,1.06A85.76,85.76,0,0,0,397,542.2a1.51,1.51,0,0,0-1.46-2.5,54.36,54.36,0,0,0-12.8,3.34,1.53,1.53,0,0,0-1,1.84,1.5,1.5,0,0,0,1.84,1Z"/><path class="cls-6" d="M392.81,577.08a34.62,34.62,0,0,1,7.6-2l-1.69-2.2A36.32,36.32,0,0,1,393,580l2.5.66-2.58-10.44-2.2,1.69c1.86,1.43,3.68,2.94,5.44,4.49.87.77,1.72,1.55,2.56,2.34a13.76,13.76,0,0,1,2.25,2.45l.89-2.21c.26,0,.26,0,0,0l-.29-.1-.84-.33-1.48-.57-3.33-1.29-6.54-2.54a1.51,1.51,0,0,0-1.84,1.05,1.53,1.53,0,0,0,1.05,1.84l7,2.73,3.46,1.34c1.18.46,2.3,1.07,3.6.8a1.52,1.52,0,0,0,.9-2.21,27.78,27.78,0,0,0-5.28-5.39c-2-1.73-4-3.37-6.05-5a1.5,1.5,0,0,0-1.67.12,1.53,1.53,0,0,0-.53,1.58l2.58,10.44a1.51,1.51,0,0,0,2.51.66,38.77,38.77,0,0,0,6.21-7.76,1.5,1.5,0,0,0-.12-1.66,1.57,1.57,0,0,0-1.58-.54,34.93,34.93,0,0,0-7.59,2,1.55,1.55,0,0,0-1,1.85,1.51,1.51,0,0,0,1.84,1.05Z"/><path class="cls-5" d="M424.19,581.56l4.21-.46,2-.22a9.15,9.15,0,0,1,2-.17l-.76-.21.15.08-.54-.54-.1-.53a2.25,2.25,0,0,1-.08.24,3.29,3.29,0,0,0-.21.42c-.16.3-.34.58-.52.86-.42.62-.88,1.22-1.33,1.83l-1.38,1.87a9.72,9.72,0,0,1-1.37,1.8l.66-.39-.15,0h.8l-.13,0,.66.39c.09.08,0,.12,0-.06a4.58,4.58,0,0,0-.22-.58c-.15-.39-.29-.79-.43-1.18-.29-.83-.56-1.66-.78-2.51a13.76,13.76,0,0,1-.43-4.86L424,578.63c2.79,2,4.76,5,6.62,7.79l1.7-2.2a127,127,0,0,1-12.51-4.1,1.51,1.51,0,0,0-1.85,1,1.54,1.54,0,0,0,1.05,1.85,125.21,125.21,0,0,0,12.51,4.1,1.52,1.52,0,0,0,1.69-2.21c-2.16-3.3-4.46-6.52-7.69-8.86-1-.73-2.16.29-2.26,1.3a17.41,17.41,0,0,0,.88,6.86c.34,1.07.72,2.14,1.13,3.19a2.61,2.61,0,0,0,1,1.49,1.8,1.8,0,0,0,2.1-.23,16.82,16.82,0,0,0,2.07-2.72c.7-.94,1.41-1.88,2.09-2.84a9.28,9.28,0,0,0,1.51-2.78,2,2,0,0,0-2-2.61c-1.27,0-2.56.28-3.83.41l-4.08.45a1.5,1.5,0,0,0,0,3Z"/><path class="cls-4" d="M452.17,582.51l7.07-1a25.83,25.83,0,0,1,6.85-.44l-.76-2.79-9.93,7.63,2.26,1.3a41.73,41.73,0,0,1,.65-9.79l-2.21.9c.62.31.93,1.19,1.25,1.77.51.9,1,1.81,1.45,2.74a57.35,57.35,0,0,1,2.35,5.47l2.2-1.69A107.22,107.22,0,0,1,451,580.31a1.5,1.5,0,0,0-1.52,2.59,108.17,108.17,0,0,0,12.38,6.29,1.54,1.54,0,0,0,1.66-.12,1.48,1.48,0,0,0,.54-1.58,64.28,64.28,0,0,0-2.78-6.45c-.51-1-1.05-2-1.61-3a5.29,5.29,0,0,0-2-2.33,1.51,1.51,0,0,0-2.2.9,44.17,44.17,0,0,0-.76,10.58c0,1,1.29,2,2.26,1.29l9.93-7.63a1.52,1.52,0,0,0-.76-2.8,27.44,27.44,0,0,0-7.34.51l-7.38,1a1.5,1.5,0,1,0,.8,2.89Z"/><path class="cls-6" d="M482.51,578.51l15.13-4.18-1.7-2.2c-2.58,3.89-6.7,6.44-9.16,10.44l2.74.36a60.73,60.73,0,0,1-.44-11.44l-2.56,1.06a97,97,0,0,1,6.39,7.92l1.3-2.26a103.26,103.26,0,0,1-11.07-1.63,1.54,1.54,0,0,0-1.85,1,1.52,1.52,0,0,0,1,1.85,107.77,107.77,0,0,0,11.87,1.74A1.5,1.5,0,0,0,495.5,579a104,104,0,0,0-6.86-8.53,1.52,1.52,0,0,0-2.56,1.06,64.22,64.22,0,0,0,.55,12.24c.19,1.36,2.13,1.35,2.74.36,2.45-4,6.58-6.55,9.16-10.45a1.51,1.51,0,0,0-1.69-2.2l-15.13,4.17a1.51,1.51,0,0,0,.8,2.9Z"/><path class="cls-7" d="M516.79,565.51a80,80,0,0,1,11.49-4.25l-1.46-.38.12.1-.39-.67q.21-.85-.06-.24l-.2.37-.4.75-.89,1.6c-.58,1-1.18,2.05-1.79,3.06q-1.86,3.09-3.9,6.06h2.59a5.14,5.14,0,0,1-.54-2.45c0-1-.06-2-.05-3a15.74,15.74,0,0,1,.22-2.74,11.6,11.6,0,0,1,.37-1.52c.05-.14.31-.64.27-.73s.39-.06-.13,0h-.8c-.12-.13-.12-.15,0,0l.18.18.49.51,1,1c.67.73,1.33,1.47,2,2.23q1.86,2.16,3.57,4.44l1.69-2.2a65,65,0,0,0-7.55-2.42c-1.27-.33-2.55-.61-3.84-.86a10.68,10.68,0,0,1-3.27-1c-1.69-.94-3.2,1.65-1.52,2.6,2.28,1.27,5.06,1.45,7.56,2.07a66.43,66.43,0,0,1,7.82,2.49,1.52,1.52,0,0,0,1.7-2.21c-1.55-2.06-3.17-4.07-4.88-6-.87-1-1.74-2-2.69-2.9a2.26,2.26,0,0,0-3.41-.11,7.31,7.31,0,0,0-1.34,3.34,21.54,21.54,0,0,0-.37,3.67c0,2.31-.21,5.05,1,7.12a1.52,1.52,0,0,0,2.59,0q2.24-3.27,4.27-6.68.93-1.57,1.83-3.18c.56-1,1.59-2.31,1.55-3.51a1.84,1.84,0,0,0-1.27-1.69,3.8,3.8,0,0,0-2,.36c-1.22.36-2.42.75-3.61,1.17q-3.76,1.33-7.38,3a1.51,1.51,0,0,0-.54,2.05,1.53,1.53,0,0,0,2,.54Z"/><path class="cls-5" d="M528.82,535.71l7.41-1.24-1.9-1.44c0,.5-.58,1.05-1,1.45l-2,2.11-4.09,4.29,2.35,1.82c2.11-4.19,2.24-8.88,2.26-13.47l-2.79.76a61.41,61.41,0,0,1,5.89,11.6l2.2-1.7-10.81-6.56c-1.65-1-3.16,1.59-1.51,2.59l10.81,6.56c1.05.64,2.68-.44,2.2-1.69a65.18,65.18,0,0,0-6.19-12.32,1.52,1.52,0,0,0-2.8.76c0,4,0,8.28-1.85,12-.73,1.46,1.13,3.1,2.36,1.81l4.6-4.83c1.44-1.51,3.14-2.94,3.33-5.14.1-1.07-1-1.6-1.89-1.45L528,532.82a1.51,1.51,0,0,0-1,1.84,1.54,1.54,0,0,0,1.85,1.05Z"/></g></g></svg>