<svg xmlns="http://www.w3.org/2000/svg" viewBox="0 0 1000 1000"><defs><style>.cls-1,.cls-2,.cls-3{fill:#ccc;}.cls-1,.cls-2,.cls-3,.cls-6{stroke:#000;}.cls-1,.cls-2,.cls-6{stroke-linejoin:round;}.cls-1,.cls-3{stroke-width:3.26px;}.cls-2{stroke-width:3.19px;}.cls-3{stroke-miterlimit:10;}.cls-4{fill:#fff;}.cls-5{fill:#003;}.cls-6{fill:none;stroke-width:3px;}</style></defs><g id="Tops"><g id="Grey_Hoodie" data-name="Grey Hoodie"><polygon class="cls-1" points="649.76 599.95 664.13 615.71 627.57 647.59 610.5 632.53 649.76 599.95"/><polygon class="cls-2" points="509.55 520.55 610.61 637.8 655.61 599.86 522.41 444.67 509.55 520.55"/><polygon class="cls-1" points="269.93 605.95 255.55 621.71 292.12 653.59 309.19 638.53 269.93 605.95"/><polygon class="cls-2" points="410.13 526.55 309.08 643.8 264.08 605.86 397.28 450.67 410.13 526.55"/><path class="cls-3" d="M461.66,471.89l-64.82-21.22L353.62,677s109.7,51,216.08,0l-46.54-232.7-38.23,18Z"/><polygon class="cls-2" points="388.71 424.31 378.55 436.83 391.85 452.77 461.66 471.89 422 429.63 388.71 424.31"/><polygon class="cls-2" points="535.76 425.72 544.77 436.83 531.47 452.77 461.66 471.89 501.34 430.62 535.76 425.72"/><path class="cls-4" d="M400.34,510.48q-.4,6-.82,12a71.9,71.9,0,0,0-.15,11.08A38.55,38.55,0,0,0,403.16,548a28.48,28.48,0,0,0,9.09,10.2c7.47,5.36,18.09,5.18,25.61,0a37.77,37.77,0,0,0,14.62-20.79c2.38-8.24,2.25-17.79-1-25.77-1.08-2.64-2.27-4.78-4.83-6.27a10.49,10.49,0,0,0-14.36,3.76c-1.23,2.33-2.11,5.54-1.06,8.09a30.82,30.82,0,0,1,2,7.49l-.38-2.79a32.14,32.14,0,0,1,0,8.14l.37-2.79a32.32,32.32,0,0,1-2.11,7.85l1.06-2.5a30.47,30.47,0,0,1-3.9,6.69l1.64-2.13a23.8,23.8,0,0,1-3.8,3.84l2.12-1.64a18.18,18.18,0,0,1-3.58,2.17l2.51-1a14.21,14.21,0,0,1-3.62,1l2.8-.38a13,13,0,0,1-2.93,0l2.79.37a12.86,12.86,0,0,1-3-.86l2.5,1.06a16,16,0,0,1-3.06-1.82l2.13,1.64a18.44,18.44,0,0,1-3.08-3.1l1.64,2.12a19.72,19.72,0,0,1-2.42-4.11l1.05,2.51a26.14,26.14,0,0,1-1.68-6.34l.37,2.8a62.27,62.27,0,0,1-.09-12.21c.27-4.22.57-8.45.86-12.67a10.5,10.5,0,0,0-17.92-7.43,11.57,11.57,0,0,0-3.08,7.43Z"/><path class="cls-4" d="M478,506.67a30.34,30.34,0,0,0-10-4c-5-.95-10.07-1.28-14.69,1.27s-6.37,7.41-8,11.95a60.83,60.83,0,0,0-2.39,8.36,82,82,0,0,0-1.51,10.94,24.31,24.31,0,0,0,1.13,10.45,19.63,19.63,0,0,0,9.19,10.65,27.3,27.3,0,0,0,12.43,2.94,30.7,30.7,0,0,0,10.44-1.38c5.28-1.9,9.5-5.4,11.13-11a10.5,10.5,0,1,0-20.25-5.59,4.06,4.06,0,0,1-.19.59l1.06-2.51a5.46,5.46,0,0,1-.6,1l1.64-2.12a6,6,0,0,1-.83.84l2.13-1.65a8.36,8.36,0,0,1-1.88,1.07l2.5-1a15.49,15.49,0,0,1-3.49.86l2.79-.37a30.36,30.36,0,0,1-7,.09l2.79.38a15.8,15.8,0,0,1-3.71-.95l2.5,1.06a12.8,12.8,0,0,1-2.63-1.53l2.12,1.65a11.52,11.52,0,0,1-1.6-1.6l1.64,2.13a10,10,0,0,1-1-1.66l1.06,2.5a11.78,11.78,0,0,1-.75-2.87l.37,2.8a36,36,0,0,1,.37-8.43l-.37,2.79a62.48,62.48,0,0,1,4.14-15.42l-1.06,2.51a10.42,10.42,0,0,1,1.26-2.29l-1.64,2.13a5.61,5.61,0,0,1,.79-.75l-2.13,1.65a3.44,3.44,0,0,1,.68-.37l-2.51,1.06a6.52,6.52,0,0,1,1.16-.27l-2.79.37a18.27,18.27,0,0,1,3.84.16l-2.8-.38a23.56,23.56,0,0,1,5.48,1.51l-2.51-1.05a23,23,0,0,1,3.11,1.62c4.67,2.89,11.76,1.16,14.36-3.77A10.7,10.7,0,0,0,478,506.67Z"/><path class="cls-4" d="M486.9,524.49A180.82,180.82,0,0,0,511.29,523a8,8,0,0,0,4-.9,7.84,7.84,0,0,0,3.38-2.18,10.49,10.49,0,0,0,0-14.85c-1.89-1.74-4.74-3.42-7.42-3.07a180.82,180.82,0,0,1-24.39,1.54,10.5,10.5,0,0,0,0,21Z"/><path class="cls-4" d="M490.47,517.89q.61,3.36,1.07,6.73l-.37-2.79a133.43,133.43,0,0,1,.64,28.67c-.22,2.55,1.33,5.68,3.07,7.43a10.51,10.51,0,0,0,14.85,0,11.75,11.75,0,0,0,3.08-7.43,143.46,143.46,0,0,0-2.09-38.19c-.45-2.46-2.74-5.06-4.82-6.28a10.81,10.81,0,0,0-8.1-1.06,10.64,10.64,0,0,0-6.27,4.83,11.79,11.79,0,0,0-1.06,8.09Z"/><path class="cls-4" d="M491.86,562.06l24,.31a10.74,10.74,0,0,0,7.42-3.07,10.5,10.5,0,0,0-7.42-17.93l-24-.31a10.5,10.5,0,0,0,0,21Z"/><path class="cls-5" d="M404.84,510.48q-.4,6-.82,12a71.9,71.9,0,0,0-.15,11.08c.71,8.26,3.77,15.8,10.65,20.76a18.38,18.38,0,0,0,21.07,0,32.92,32.92,0,0,0,12.55-18.1,36.21,36.21,0,0,0-1-23.37,6.59,6.59,0,0,0-2.76-3.59,6.11,6.11,0,0,0-4.62-.6c-2.79.9-5.46,4.27-4.19,7.38a29.1,29.1,0,0,1,1.34,4.05c.16.63.3,1.26.42,1.9a4.84,4.84,0,0,0,.18,1.15l-.11-.83c0,.26.06.52.08.77a30.56,30.56,0,0,1,.09,4.28c0,.64-.09,1.29-.15,1.93-.11,1.33.19-1.11,0-.24-.08.45-.15.89-.23,1.34a30.59,30.59,0,0,1-1,3.76c-.12.37-.25.73-.39,1.1l-.13.36c-.25.6-.19.48.16-.35,0,0-.92,1.93-1,2.09a28.84,28.84,0,0,1-2,3.31c-.31.42-1.08,1,0,0a7.49,7.49,0,0,0-.49.6,23,23,0,0,1-1.75,1.81c-.23.22-.48.43-.72.65-1,.92,1.11-.76,0,0-.53.36-1.06.72-1.61,1a10.67,10.67,0,0,0-1,.52c0-.07,1.43-.51.4-.16-.72.24-1.44.43-2.17.6-1.29.3,1.41,0,.09,0-.31,0-.61,0-.92,0a6.88,6.88,0,0,0-.89-.06l.89.12c-.23,0-.47-.09-.69-.15a17,17,0,0,0-1.68-.53l.78.33-.64-.32c-.31-.16-.62-.34-.92-.53s-.65-.57-.89-.61c.63.11.89.75.36.27s-1.07-1-1.57-1.52l-.48-.56c-.87-1,.77,1.14,0,0-.41-.61-.82-1.22-1.17-1.87-.15-.27-.29-.54-.43-.82-.3-.62,0-.84.08.27a12.64,12.64,0,0,0-.68-2,26.41,26.41,0,0,1-.64-2.66c0-.11-.14-.9-.15-.9q.15,1.26,0,.24l-.09-.91a71.9,71.9,0,0,1,.15-11.08q.41-6,.82-12c.22-3.14-2.91-6.14-6-6a6.14,6.14,0,0,0-6,6Z"/><path class="cls-5" d="M475.73,510.55A26.93,26.93,0,0,0,466.8,507c-3.7-.71-7.81-1.12-11.22.81s-4.71,5.84-5.95,9.27a60.69,60.69,0,0,0-2.39,8.35,72.81,72.81,0,0,0-1.35,9.75,21.15,21.15,0,0,0,1,9.25c2.81,7.12,10,10.23,17.28,10.29,6.79,0,15-1.56,17.23-9a6.06,6.06,0,0,0-4.19-7.38,6.12,6.12,0,0,0-7.38,4.19c-.26.91.23-.53.29-.57a4.17,4.17,0,0,0-.3.51c0,.08.85-1.11.48-.65-.18.23-.73.55.05,0,.94-.62-.18.09-.4.21a6,6,0,0,0-.57.28c1.13-.78.94-.37.38-.21-.8.22-1.63.33-2.41.55.06,0,1.59-.15.62-.1l-.78.06c-.62,0-1.24.09-1.86.11s-1.24,0-1.86,0l-.7,0c-.21,0-1.22-.07-.35,0s-.13,0-.35-.07l-.68-.15c-.27-.06-.54-.14-.81-.22l-.36-.12q-.72-.27,0,0c.53.52.17.07-.16-.1a4.82,4.82,0,0,1-.5-.27l-.65-.4c-1-.57.35.17.31.25s-.83-.82-.95-.92c-.55-.53.62,1,.25.32,0-.06-.53-.77-.48-.82s.44,1.45.12.26c-.08-.28-.16-.54-.23-.82s-.08-.42-.13-.63c-.19-.81.06,1.16.06.32,0-1.15-.05-2.3,0-3.46s.18-2.28.3-3.42c.09-.89.19.08,0,.24a3.47,3.47,0,0,0,.1-.68c.1-.68.21-1.36.34-2a60.6,60.6,0,0,1,1.7-6.88c.34-1.09.71-2.18,1.1-3.25.19-.5.4-1,.58-1.49.31-.82-.47,1-.12.28.14-.28.26-.57.42-.84a5.38,5.38,0,0,0,.39-.63c-.07.21-.78,1-.21.39a3.24,3.24,0,0,1-1.31.84c1-.39-.85,0-.2,0s1.28,0,1.92.06a4.54,4.54,0,0,0,.87.08c-.32.08-1.12-.19-.29,0a29.58,29.58,0,0,1,3.79,1.05c.87.3-.19.09-.21-.11a3.88,3.88,0,0,0,.79.38c.65.32,1.29.69,1.91,1.07a6.05,6.05,0,0,0,8.21-2.15,6.12,6.12,0,0,0-2.16-8.21Z"/><path class="cls-5" d="M486.9,520a180.82,180.82,0,0,0,24.39-1.54,6.63,6.63,0,0,0,4.24-1.76,6,6,0,0,0,0-8.48,5.72,5.72,0,0,0-4.24-1.76A180.82,180.82,0,0,1,486.9,508a6,6,0,0,0,0,12Z"/><path class="cls-5" d="M494.81,516.69c.26,1.44.51,2.88.73,4.33,0,.32.1.64.14,1,0,0,.23,1.55.09.65s0,.26.05.41l.15,1.21c.32,2.9.56,5.82.69,8.74a131.18,131.18,0,0,1-.35,17.51c-.27,3.14,2.95,6.14,6,6a6.15,6.15,0,0,0,6-6,138.7,138.7,0,0,0-1.93-37c-.57-3.09-4.48-5.12-7.38-4.19a6.17,6.17,0,0,0-4.19,7.38Z"/><path class="cls-5" d="M491.86,557.56l24,.31a6,6,0,0,0,0-12l-24-.31a6,6,0,0,0,0,12Z"/><path class="cls-6" d="M380.5,685.5l1-18c17,2,29-22,29-22l108-3s3,27,21,26l5,17S474.5,717.5,380.5,685.5Z"/></g></g></svg>