<svg xmlns="http://www.w3.org/2000/svg" viewBox="0 0 1000 1000"><defs><style>.cls-1{fill:#1e1e1e;}.cls-1,.cls-2,.cls-4{stroke:#000;stroke-miterlimit:10;stroke-width:3.26px;}.cls-2{fill:#fff;}.cls-3,.cls-4{fill:none;}.cls-3{stroke:#fff;stroke-linejoin:round;stroke-width:3.26px;}</style></defs><g id="Shoes"><g id="Converse_Black" data-name="Converse Black"><path class="cls-1" d="M386.86,932c0-26.41,14.14-47.81,31.59-47.81S450,905.59,450,932Z"/><path class="cls-2" d="M449.65,923.91c.25,2.4.38,5.58.38,8.09H386.86a71.37,71.37,0,0,1,.46-8.09Z"/><polyline class="cls-3" points="408.5 886.5 428.9 891.5 407.1 899.5 428.9 904.5 407.1 913.5 428.9 913.5 407.1 904.5 428.9 899.5 407.1 891.5 426.5 885.5"/><path class="cls-4" d="M386.86,932c0-26.41,14.14-47.81,31.59-47.81S450,905.59,450,932Z"/><path class="cls-1" d="M530,932c0-26.41-14.14-47.81-31.58-47.81s-31.59,21.4-31.59,47.81Z"/><path class="cls-2" d="M467.24,923.91c-.25,2.4-.38,5.58-.38,8.09H530a73.79,73.79,0,0,0-.45-8.09Z"/><polyline class="cls-3" points="508.39 886.5 487.99 891.5 509.79 899.5 487.99 904.5 509.79 913.5 487.99 913.5 509.79 904.5 487.99 899.5 509.79 891.5 490.39 885.5"/><path class="cls-4" d="M530,932c0-26.41-14.14-47.81-31.58-47.81s-31.59,21.4-31.59,47.81Z"/></g><g id="Layer_36" data-name="Layer 36"><path class="cls-2" d="M386.86,932c0-26.41,14.14-47.81,31.59-47.81S450,905.59,450,932Z"/><path class="cls-2" d="M449.65,923.91c.25,2.4.38,5.58.38,8.09H386.86a71.37,71.37,0,0,1,.46-8.09Z"/><path class="cls-4" d="M386.86,932c0-26.41,14.14-47.81,31.59-47.81S450,905.59,450,932Z"/><path class="cls-2" d="M530,932c0-26.41-14.14-47.81-31.58-47.81s-31.59,21.4-31.59,47.81Z"/><path class="cls-2" d="M467.24,923.91c-.25,2.4-.38,5.58-.38,8.09H530a73.79,73.79,0,0,0-.45-8.09Z"/><path class="cls-4" d="M530,932c0-26.41-14.14-47.81-31.58-47.81s-31.59,21.4-31.59,47.81Z"/></g></g></svg>