<svg xmlns="http://www.w3.org/2000/svg" viewBox="0 0 1000 1000"><defs><style>.cls-1,.cls-2,.cls-3{fill:#ccc;}.cls-1,.cls-2,.cls-3,.cls-4{stroke:#000;}.cls-1,.cls-2,.cls-4{stroke-linejoin:round;}.cls-1,.cls-3{stroke-width:3.26px;}.cls-2{stroke-width:3.19px;}.cls-3{stroke-miterlimit:10;}.cls-4{fill:none;stroke-width:3px;}</style></defs><g id="Tops"><g id="Zip_Up_Hoodie" data-name="Zip Up Hoodie"><polygon class="cls-1" points="649.76 599.95 664.13 615.71 627.57 647.59 610.5 632.53 649.76 599.95"/><polygon class="cls-2" points="509.55 520.55 610.61 637.8 655.61 599.86 522.41 444.67 509.55 520.55"/><polygon class="cls-1" points="269.93 605.95 255.55 621.71 292.12 653.59 309.19 638.53 269.93 605.95"/><polygon class="cls-2" points="410.13 526.55 309.08 643.8 264.08 605.86 397.28 450.67 410.13 526.55"/><path class="cls-3" d="M479.08,699.36c28.65-1.37,59.78-7.58,90.62-22.37l-46.54-232.7L470.5,469.5Z"/><path class="cls-3" d="M452.33,468.84l-55.49-18.17L353.62,677s36.22,16.84,87.21,21.49Z"/><polygon class="cls-2" points="388.71 424.31 378.55 436.83 391.85 452.77 453.5 469.5 422 429.63 388.71 424.31"/><polygon class="cls-2" points="533.76 426.72 542.77 437.83 529.47 453.77 469.5 469.5 499.34 431.62 533.76 426.72"/><path class="cls-4" d="M442.5,649.5l-32-4s-12,24-29,22l-1,18a267.53,267.53,0,0,0,48.88,11.72"/><path class="cls-4" d="M477.5,646.5l41-4s3,27,21,26l5,17S521.85,695.85,485,698.89"/></g></g></svg>