<svg xmlns="http://www.w3.org/2000/svg" viewBox="0 0 1000 1000"><defs><style>.cls-1{fill:#1c1e23;}.cls-1,.cls-2{stroke:#000;stroke-miterlimit:10;stroke-width:9.5px;}.cls-2{fill:none;}</style></defs><g id="Bottoms"><g id="Black_Cargo" data-name="Black Cargo"><g id="Thumbnail"><path class="cls-1" d="M785,139.87,743.64,655.8,730.9,681.28,750,754.53,724.53,866l-200.64-6.37L508,232.23l-41.4,627.4H272.29L240.44,662.17,256.36,608,215,133.5s221.18,47.4,296.19,47.77C580.4,181.61,785,139.87,785,139.87Z"/><path class="cls-1" d="M224.52,254.52s54.14-12.74,47.77-73.25"/><path class="cls-1" d="M730.9,197.2s14.86,51.71,47.24,38.59"/><polyline class="cls-2" points="237.25 388.28 310.5 388.28 323.25 627.14 254.01 624.03"/><line class="cls-2" x1="247.95" y1="499.67" x2="316.88" y2="467.9"/><polyline class="cls-2" points="764.34 404.21 691.09 404.21 678.35 643.07 747.58 639.96"/><line class="cls-2" x1="753.65" y1="515.6" x2="684.72" y2="483.83"/></g></g></g></svg>