<svg id="Bottoms" xmlns="http://www.w3.org/2000/svg" viewBox="0 0 1000 1000"><defs><style>.cls-1,.cls-2,.cls-5{fill:#1c2223;}.cls-1,.cls-4,.cls-7{stroke:#000;}.cls-1,.cls-2,.cls-4,.cls-6,.cls-7,.cls-8{stroke-miterlimit:10;}.cls-1,.cls-2,.cls-4,.cls-6{stroke-width:10.11px;}.cls-2{stroke:#705721;}.cls-3,.cls-6,.cls-8{fill:#9b9b9b;}.cls-4,.cls-7{fill:none;}.cls-6,.cls-8{stroke:#9b9b9b;}.cls-7,.cls-8{stroke-width:8.36px;}</style></defs><g id="Cat_Skirt" data-name="Cat Skirt"><path class="cls-1" d="M788.7,136.67l46.68,669.56c-23.61,33.69-163.5,35.69-309.58,39.58-18.55.5-37.26,17.51-55.78,17.52-150.89.13-293.37-15.64-305.4-47.2L213.84,139s218.22,44.27,291.32,43.89C576.38,182.48,788.7,136.67,788.7,136.67Z"/><path class="cls-2" d="M288.45,173s-20.64,69.27-61.91,59.37"/><g id="cat"><path class="cls-3" d="M205.9,252.11S381.33,380.75,402,450l51.59-49.47v98.95s61.92,158.32,0,168.21,10.32,118.74,10.32,118.74,31,39.58,0,39.58-31,9.9-51.6-19.79-20.63-89.05-51.59-79.16-10.32,89.06-10.32,89.06-31,29.68-72.24,0,10.32-89.06,10.32-89.06-100.74-33.92-112.28-61.49"/><polyline class="cls-4" points="236.85 548.96 236.85 479.7 288.45 509.38"/><ellipse class="cls-5" cx="309.09" cy="613.28" rx="30.96" ry="24.74"/><ellipse class="cls-5" cx="417.44" cy="583.59" rx="36.12" ry="24.74"/><line class="cls-6" x1="303.93" y1="583.59" x2="314.25" y2="642.96"/><line class="cls-6" x1="413.57" y1="557.21" x2="423.89" y2="616.58"/></g><g id="cat-2" data-name="cat"><path class="cls-3" d="M782.8,222.66S635.41,327.35,618.07,383.73l-43.35-40.27V424s-52,128.86,0,136.91-8.67,96.64-8.67,96.64-26,32.22,0,32.22,26,8,43.35-16.11,17.34-72.48,43.35-64.43,8.67,72.48,8.67,72.48,26,24.16,60.69,0-8.67-72.48-8.67-72.48,84.64-27.61,94.34-50"/><polyline class="cls-7" points="756.79 464.26 756.79 407.89 713.44 432.05"/><ellipse class="cls-5" cx="696.1" cy="516.61" rx="26.01" ry="20.13"/><ellipse class="cls-5" cx="605.06" cy="492.45" rx="30.35" ry="20.13"/><line class="cls-8" x1="700.44" y1="492.45" x2="691.77" y2="540.77"/><line class="cls-8" x1="608.31" y1="470.97" x2="599.64" y2="519.29"/></g><path class="cls-4" d="M788.7,136.67l46.68,669.56c-23.61,33.69-163.5,35.69-309.58,39.58-18.55.5-37.26,17.51-55.78,17.52-150.89.13-293.37-15.64-305.4-47.2L213.84,139s218.22,44.27,291.32,43.89C576.38,182.48,788.7,136.67,788.7,136.67Z"/></g></svg>