<svg xmlns="http://www.w3.org/2000/svg" viewBox="0 0 1000 1000"><defs><style>.cls-1,.cls-4{fill:#b3b3b3;}.cls-1,.cls-3,.cls-4,.cls-5{stroke:#000;}.cls-1,.cls-2,.cls-3,.cls-5{stroke-miterlimit:10;stroke-width:11.52px;}.cls-2{fill:#1b1464;stroke:#f2f2f2;}.cls-3{fill:none;}.cls-4{stroke-linejoin:round;stroke-width:11.52px;}</style></defs><g id="Plush"><path class="cls-1" d="M582.17,612.5h42.48S653,591.26,582.17,502.77"/><path class="cls-1" d="M463.09,708l62.45,88.58S589.25,824.89,631.73,786,514.92,665.6,514.92,665.6"/><path class="cls-1" d="M596.33,538.17a177,177,0,0,1-354,0c0-97.75,79.24-205.3,177-205.3S596.33,440.42,596.33,538.17Z"/><path class="cls-2" d="M297.23,400.12S499,616,587.48,577.11c0,0-17.7,63.71-46,81.41l-28.32,17.7S325.55,524,283.07,424.9Z"/><path class="cls-1" d="M369.37,458.16l-5.75,113.63s22.44,42.59,61,23.15,13-126.87,13-126.87"/><path class="cls-3" d="M596.33,538.17a177,177,0,0,1-354,0c0-97.75,79.24-205.3,177-205.3S596.33,440.42,596.33,538.17Z"/><path class="cls-1" d="M309.62,662.06l31.85,127.43s24.78,31.86,77.88,14.16S369.79,647.9,369.79,647.9"/><polyline class="cls-4" points="523.77 208.98 555.63 194.82 566.25 233.75"/><path class="cls-1" d="M440.59,347S631.73,456.76,660.05,516.93s85,17.7,85,17.7,42.48-24.78-28.32-131c-58.47-87.7-163.29-213.4-239.5-199.2-5.6,1-33.1-15.81-38.36-13.18-9.84,4.9,3,31.34-5.31,42.47C369.79,318.71,440.59,347,440.59,347Z"/><ellipse class="cls-5" cx="493.68" cy="283.31" rx="19.47" ry="10.62"/></g></svg>