<svg xmlns="http://www.w3.org/2000/svg" viewBox="0 0 1000 1000"><defs><style>.cls-1{fill:#1e1e1e;}.cls-1,.cls-2,.cls-4{stroke:#000;stroke-miterlimit:10;stroke-width:21.36px;}.cls-2{fill:#fff;}.cls-3,.cls-4{fill:none;}.cls-3{stroke:#fff;stroke-linejoin:round;stroke-width:21.36px;}</style></defs><g id="Shoes"><g id="Converse_Black" data-name="Converse Black"><path class="cls-1" d="M177.92,461.85c0-173.31,92.8-313.8,207.27-313.8s207.27,140.49,207.27,313.8Z"/><path class="cls-2" d="M590,408.76c1.61,15.76,2.45,36.64,2.45,53.09H177.92a475.56,475.56,0,0,1,3-53.09Z"/><polyline class="cls-3" points="319.91 163.23 453.8 196.05 310.72 248.55 453.8 281.37 310.72 340.44 453.8 340.44 310.72 281.37 453.8 248.55 310.72 196.05 438.05 156.67"/><path class="cls-4" d="M177.92,461.85c0-173.31,92.8-313.8,207.27-313.8s207.27,140.49,207.27,313.8Z"/><path class="cls-1" d="M821.5,854.85c0-173.31-92.8-313.8-207.27-313.8S407,681.54,407,854.85Z"/><path class="cls-2" d="M409.41,801.76C407.8,817.52,407,838.4,407,854.85H821.5a475.56,475.56,0,0,0-3-53.09Z"/><polyline class="cls-3" points="679.51 556.23 545.62 589.05 688.7 641.55 545.62 674.37 688.7 733.44 545.62 733.44 688.7 674.37 545.62 641.55 688.7 589.05 561.37 549.67"/><path class="cls-4" d="M821.5,854.85c0-173.31-92.8-313.8-207.27-313.8S407,681.54,407,854.85Z"/></g></g></svg>