<svg xmlns="http://www.w3.org/2000/svg" viewBox="0 0 1000 1000"><defs><style>.cls-1{fill:none;}.cls-1,.cls-2,.cls-3{stroke:#000;stroke-miterlimit:10;}.cls-1,.cls-2{stroke-width:7.25px;}.cls-2{fill:#732d00;}.cls-3{fill:#49350d;stroke-width:7.83px;}</style></defs><g id="Glasses"><rect class="cls-1" x="182.75" y="407.11" width="271.61" height="129.13" rx="19.26"/><rect class="cls-1" x="545.64" y="407.11" width="271.61" height="129.13" rx="19.26"/><path class="cls-1" d="M456.59,460.55s38.16-38.81,89.21-.48"/><polygon class="cls-2" points="499.97 429.4 470.37 557.14 529.57 557.14 499.97 429.4"/><path class="cls-1" d="M240.94,521.66s-22.21-106.45,22.2-141.94S352,365.53,352,365.53s51.81,28.39,29.6,141.93"/><ellipse class="cls-3" cx="329.75" cy="443.59" rx="51.81" ry="70.97"/><path class="cls-1" d="M759,521.66s22.21-106.45-22.2-141.94S648,365.53,648,365.53s-51.81,28.39-29.6,141.93"/><ellipse class="cls-3" cx="670.19" cy="443.59" rx="51.81" ry="70.97"/><path d="M418.34,628.62a173.28,173.28,0,0,0,67.22,18.92,179,179,0,0,0,67.81-7.86,166.3,166.3,0,0,0,35.6-16.1c3.24-2,4.74-6.59,2.6-9.91a7.36,7.36,0,0,0-9.92-2.6q-5.58,3.39-11.44,6.3c-1.89.94-3.81,1.84-5.74,2.7l-1.45.64-.73.32c-1.08.47.57-.24.64-.27-1,.48-2.08.86-3.13,1.27a165,165,0,0,1-24.9,7.63c-4.8,1.08-9.66,1.93-14.54,2.6l1.93-.26a176.07,176.07,0,0,1-46.66,0l1.92.26a169.29,169.29,0,0,1-21.49-4.33q-5.28-1.42-10.46-3.21-2.53-.87-5-1.83l-2.4-.94-1.29-.53-.55-.22c-.8-.33,1.77.76.45.19-3.77-1.62-7.48-3.37-11.11-5.28-3.36-1.75-8-1-9.92,2.6-1.76,3.34-1,8,2.6,9.92Z"/></g></svg>