<svg xmlns="http://www.w3.org/2000/svg" viewBox="0 0 1000 1000"><defs><style>.cls-1,.cls-2,.cls-3,.cls-4{fill:#666;stroke:#000;}.cls-1,.cls-2,.cls-4{stroke-linejoin:round;}.cls-1,.cls-3{stroke-width:5.35px;}.cls-2{stroke-width:5.24px;}.cls-3{stroke-miterlimit:10;}.cls-4{stroke-width:4.93px;}</style></defs><g id="Tops"><g id="h_an_m" data-name="h an m"><polygon class="cls-1" points="812.09 562.34 835.72 588.24 775.63 640.62 747.58 615.89 812.09 562.34"/><polygon class="cls-2" points="581.69 431.86 747.76 624.53 821.72 562.18 602.82 307.16 581.69 431.86"/><polygon class="cls-1" points="187.91 572.2 164.28 598.1 224.37 650.48 252.42 625.75 187.91 572.2"/><polygon class="cls-2" points="418.31 441.72 252.24 634.39 178.28 572.04 397.18 317.02 418.31 441.72"/><path class="cls-3" d="M503,351.89,396.46,317l-71,371.92s180.28,83.82,355.1,0l-76.49-382.4-62.82,29.64Z"/><polygon class="cls-2" points="383.1 273.7 366.41 294.27 388.26 320.46 502.99 351.89 437.8 282.44 383.1 273.7"/><polygon class="cls-2" points="624.76 276.02 639.56 294.27 617.71 320.46 502.99 351.89 568.2 284.06 624.76 276.02"/><path class="cls-4" d="M369.61,702.93l1.64-29.58c27.94,3.28,47.66-36.16,47.66-36.16l177.48-4.93s4.93,44.37,34.51,42.73l8.22,27.94S524.08,755.52,369.61,702.93Z"/></g></g></svg>