<svg xmlns="http://www.w3.org/2000/svg" viewBox="0 0 1000 1000"><defs><style>.cls-1,.cls-2{fill:#fff;stroke:#000;stroke-linecap:round;stroke-linejoin:round;}.cls-1{stroke-width:9.21px;}.cls-2{stroke-width:8.75px;}.cls-3{fill:#ff7bac;}</style></defs><g id="Tops"><g id="Kiss"><polygon class="cls-1" points="325.12 176.27 162.55 291.03 231.88 513.73 271.5 488.03 325.12 176.27"/><polygon class="cls-1" points="667.72 157.46 837.45 289.62 768.12 512.32 721.33 469.22 667.72 157.46"/><path class="cls-2" d="M439.46,230C408.67,222.83,326,174,326,174L209.9,782.18s294.78,137.05,580.62,0l-125-625.27s-78.3,63.56-109.88,73.1C527.8,238.41,467.73,236.61,439.46,230Z"/><path class="cls-3" d="M450,431.18c-9.42-4.78-50.21-11.8-60.58-13.54s-21.84.06-29.66,7.25c-6,5.55-9.23,13.57-12,21.36-8.24,22.84-14.85,46.38-25.28,68.26s-25.24,42.42-45.9,54.45c10.43,13.36,30.05,15.43,46.06,10.55s29.77-15.27,44.44-23.46c8.42-4.7,17.24-8.74,25-14.48,9.78-7.2,17.56-16.82,25.44-26.14,26.78-31.67,58.44-62.54,98.49-71.08,16.15-3.45,32.82-3,49.31-3.48,26.54-.73,53.5-3.88,77.8-14.84s45.82-30.64,54.41-56.37L651.41,374c-12.63,1.19-25.32,2.39-38,1.6-22.08-1.38-43.34-8.75-65.1-12.78s-45.53-4.36-64.54,7.22c-24.6,15-26.7,44.14-33.8,61.12"/><path d="M451.81,428.08c-4.7-2.34-10-3.57-15.05-4.81-7-1.71-14.06-3.16-21.12-4.54q-9.58-1.86-19.2-3.52c-7-1.21-13.8-2.29-20.91-1.27a33.72,33.72,0,0,0-23.31,14.28c-5.93,8.56-8.84,19.29-12.16,29C333,478,326.51,499.2,316.32,518.73c-9.79,18.76-23.12,36.26-41.6,47.12-2.18,1.28-2.15,3.87-.73,5.65,9,11.35,24.42,15.21,38.37,13.7,16.85-1.83,31.44-11,45.6-19.61,15.12-9.24,31.9-16.06,44.84-28.43,6.39-6.11,12-13,17.67-19.71,5.2-6.13,10.53-12.17,16-18,21.58-22.82,47.2-43.9,78.44-51.19,18.23-4.25,37.13-3.22,55.7-4,18.16-.74,36.45-2.74,54-7.74,29.72-8.48,58.09-26.9,72-55.35A90.09,90.09,0,0,0,701,370.61c.7-2.07-1.2-4.76-3.47-4.55l-34.36,3.25c-11.32,1.08-22.65,2.36-34,2.82a148.41,148.41,0,0,1-32.94-2.31c-10.77-2-21.37-4.77-32-7.27-19.41-4.55-39.56-8-59.41-4.19-17.54,3.35-32.93,13-42.1,28.45-4.25,7.17-7.13,15.09-9.58,23-2.11,6.81-3.82,13.79-6.55,20.39-.75,1.8.8,4,2.51,4.42,2.06.57,3.67-.71,4.42-2.51,5-12.05,7-25.11,12.81-36.87a55.43,55.43,0,0,1,13.15-17.61c6.57-5.73,14.8-9.38,23.2-11.47,18.62-4.63,38.12-1.61,56.51,2.58,21,4.78,41.7,10.79,63.39,10.71,12.46-.05,24.88-1.48,37.27-2.65l37.71-3.57L694,368.7c-9.6,28.39-35,48.42-62.56,58.13-16.6,5.86-34.1,8.58-51.61,9.77-18.34,1.24-36.84.22-55.1,2.64-32.08,4.25-59.37,22.1-82.36,44.07-11.56,11.05-21.94,23.13-32.28,35.3-5.63,6.62-11.44,13.17-18.25,18.61s-14.45,9.17-22,13.18c-14.94,8-28.74,18.71-44.77,24.48-12.47,4.48-27.45,5.39-39-2a28.92,28.92,0,0,1-7-6.45l-.73,5.64c35.58-20.9,51.28-61.48,63.84-98.61,3.4-10.07,6.61-20.23,10.44-30.15,3.29-8.5,7.95-16.67,16.75-20.33,7-2.92,14.54-2.64,21.88-1.39q8.61,1.47,17.21,3.08c7.9,1.48,15.79,3,23.62,4.88,3.28.77,6.56,1.58,9.8,2.53,1.34.39,2.67.8,4,1.27.55.19,1.09.4,1.63.61-.87-.35.41.2.68.33,4.13,2.06,7.77-4.14,3.63-6.2Z"/><path class="cls-3" d="M352.6,610.09c54.45,24,116.45,19.39,175.33,12.31,22.29-2.68,44.76-5.7,65.79-13.7s40.76-21.5,52.46-41.11c7-11.81,10.9-25.26,14.68-38.54,10.08-35.45,20.25-71.43,20.64-108.35-9.38-1.29-17.82,5.41-25,11.7-8.51,7.44-17.06,14.92-24.36,23.61-16.42,19.55-26,44.56-43.4,63.18-16.18,17.31-38,27.83-59.56,37-16.11,6.86-32.59,13.23-49.84,15.94-26.64,4.19-53.84-.53-80.75,1a174,174,0,0,0-51.81,11.09c-2.24.85-4.56,1.81-6.13,3.66-3.28,3.84-1.94,10.19,1.54,13.84s8.46,5.29,13.22,6.8"/><path d="M350.78,613.2c28,12.3,58.3,17.44,88.73,18.34,30.64.91,61.24-2.22,91.61-5.93s61.47-8.58,87.57-25.41a96.93,96.93,0,0,0,29-28.29c8.43-13,12.68-28.1,16.87-42.85,9-31.53,17.88-63.41,20-96.27q.4-6,.47-12.09c0-2.11-1.68-3.37-3.59-3.6-7-.84-13.66,2.16-19.23,6.08-6,4.21-11.39,9.28-16.8,14.18a166.55,166.55,0,0,0-15.88,16.11,162,162,0,0,0-12.05,16.59c-7.36,11.42-13.78,23.45-21.63,34.55a110,110,0,0,1-28.72,28c-11.48,7.69-24,13.65-36.67,19.12-13.77,6-27.8,11.59-42.45,15-30.95,7.26-62.65.5-94,3.12a178.13,178.13,0,0,0-45,9.68c-3.28,1.18-6.79,2.26-9.55,4.45a11.79,11.79,0,0,0-4.39,8.77c-.38,6.75,4.2,12.5,9.88,15.56a54.14,54.14,0,0,0,9.39,3.68c4.41,1.4,6.31-5.53,1.91-6.93-4.92-1.56-11.47-3.43-13.45-8.81-.73-2-.94-4.34.44-6,1.79-2.17,5.47-3,8-3.88a170.73,170.73,0,0,1,42.77-9.31c30.71-2.58,61.67,3.72,92.14-2.56,14.54-3,28.46-8.35,42.11-14.1,12.44-5.25,24.83-10.77,36.41-17.75s22.06-15.3,30.61-25.62,15.3-22,22.2-33.42,14.1-22.49,23.44-32.07c5.12-5.26,10.6-10.14,16.12-15,4.77-4.19,9.73-8.85,15.75-11.18a17.46,17.46,0,0,1,8.61-1.13l-3.6-3.59c-.38,32.1-8.16,63.41-16.76,94.15-4.09,14.63-7.63,29.83-14.17,43.6a84.18,84.18,0,0,1-25,30.69c-23.24,17.86-52.53,24.18-81,28-29.75,4-59.85,7.28-89.91,7.34-29.44.07-59.08-3.32-86.84-13.55q-5-1.83-9.83-4a3.71,3.71,0,0,0-4.92,1.29c-.89,1.52-.49,4.13,1.29,4.92Z"/></g></g></svg>