<svg xmlns="http://www.w3.org/2000/svg" viewBox="0 0 1000 1000"><defs><style>.cls-1{fill:#fff;stroke-width:10.59px;}.cls-1,.cls-2,.cls-3{stroke:#000;stroke-linejoin:round;}.cls-2,.cls-3{fill:none;}.cls-2{stroke-width:9.59px;}.cls-3{stroke-width:9.39px;}</style></defs><g id="Bottoms"><g id="white_skirt" data-name="white skirt"><path class="cls-1" d="M226.6,155.25l-27,686.37S331.76,855.7,409.87,824s159.23,3.52,159.23,3.52,189.27,38.72,231.34,0L761.38,162.29s-196.77,42.23-265.89,39.53C405.36,198.3,226.6,155.25,226.6,155.25Z"/><path class="cls-2" d="M208.58,617.92s127.23,12,202.42-15,153.26,3,153.26,3c-18.93-3.43,178,36.49,222.66,0"/><path class="cls-3" d="M217.59,359.55s122,12,194-15,146.89,3,146.89,3c-18.14-3.43,170.57,36.48,213.4,0"/></g></g></svg>