<svg xmlns="http://www.w3.org/2000/svg" viewBox="0 0 1000 1000"><defs><style>.cls-1,.cls-2,.cls-3{fill:#fff;stroke:#000;stroke-miterlimit:10;}.cls-1,.cls-2{stroke-width:29.37px;}.cls-2{stroke-linecap:round;}.cls-3{stroke-width:14.69px;}</style></defs><g id="earrings"><path class="cls-1" d="M266.3,266.28s30.86-139.82-61.71-139.82-30.86,167.79-30.86,167.79-46.06,28-46.06,97.87c0,69.51,76,125.85,169.7,125.85H312.8c93.72,0,169.7-56.34,169.7-125.85,0-69.91-46.07-97.87-46.07-97.87s61.71-167.79-30.85-167.79-61.71,139.82-61.71,139.82Z"/><line class="cls-2" x1="208.66" y1="350.18" x2="208.66" y2="406.11"/><line class="cls-2" x1="393.79" y1="350.18" x2="393.79" y2="406.11"/><line class="cls-3" x1="274.23" y1="434.07" x2="335.94" y2="462.04"/><line class="cls-3" x1="274.23" y1="462.04" x2="335.94" y2="434.07"/><path class="cls-1" d="M650.05,640.26s30.86-139.83-61.71-139.83-30.86,167.8-30.86,167.8-46.06,28-46.06,97.87c0,69.5,76,125.85,169.7,125.85h15.43c93.72,0,169.7-56.35,169.7-125.85,0-69.91-46.07-97.87-46.07-97.87s61.71-167.8-30.85-167.8-61.71,139.83-61.71,139.83Z"/><line class="cls-2" x1="592.41" y1="724.16" x2="592.41" y2="780.09"/><line class="cls-2" x1="777.54" y1="724.16" x2="777.54" y2="780.09"/><line class="cls-3" x1="657.98" y1="808.05" x2="719.69" y2="836.02"/><line class="cls-3" x1="657.98" y1="836.02" x2="719.69" y2="808.05"/></g></svg>