<svg xmlns="http://www.w3.org/2000/svg" viewBox="0 0 1000 1000"><defs><style>.cls-1,.cls-2{fill:#333;stroke-linecap:round;stroke-linejoin:round;}.cls-1,.cls-2,.cls-3,.cls-4,.cls-5,.cls-6{stroke:#000;}.cls-1{stroke-width:3.47px;}.cls-2{stroke-width:3.42px;}.cls-3{fill:#ffd8ca;}.cls-3,.cls-4,.cls-5,.cls-6{stroke-miterlimit:10;}.cls-3,.cls-4,.cls-5{stroke-width:4.72px;}.cls-4{fill:#732d00;}.cls-5{fill:none;}.cls-6{fill:#49350d;stroke-width:5.1px;}</style></defs><g id="Hair"><g id="Shiort"><g id="Thumbnail_" data-name="Thumbnail;"><path class="cls-1" d="M394.25,803.48c-195.79-8.7-184.18-304.56-184.18-304.56l50.76,8.71s124.72,277,145,275.55c0,0-16,5.8-13.05,10.15S394.25,803.48,394.25,803.48Z"/><path class="cls-2" d="M611.66,809.28c195.78-8.41,184.18-294.4,184.18-294.4l-50.76,8.41s-124.72,267.77-145,266.36c0,0,16,5.61,13.05,9.82S611.66,809.28,611.66,809.28Z"/><path class="cls-3" d="M234,499.25s-67.5,9.25-67.5,50.85,14.46,87.84,82,87.84"/><path class="cls-3" d="M766,503.87s67.5,9.25,67.5,50.86-14.46,87.83-82,87.83"/><path class="cls-3" d="M499.14,753.51c68.56,0,150.16-10.39,202.49-46.23,67.49-46.23,77.14-137.21,77.14-221.9,0-71.13-19.7-154-62.68-203.4-50.34-57.82-135.07-87.84-217-87.84H504c-81.88,0-166.61,30-216.95,87.84-43,49.35-62.68,132.27-62.68,203.4,0,84.69,9.65,175.67,77.14,221.9C353.8,743.12,435.4,753.51,504,753.51"/><polygon class="cls-4" points="501.55 506.92 482.26 590.13 520.83 590.13 501.55 506.92"/><path class="cls-5" d="M332.81,567s-14.46-69.34,14.46-92.45,57.86-9.25,57.86-9.25,33.74,18.49,19.28,92.46"/><ellipse class="cls-6" cx="390.66" cy="516.16" rx="33.75" ry="46.23"/><path class="cls-5" d="M670.29,567s14.46-69.34-14.46-92.45S598,465.31,598,465.31s-33.75,18.49-19.28,92.46"/><ellipse class="cls-6" cx="612.44" cy="516.16" rx="33.75" ry="46.23"/><path d="M448.38,636.69A112.92,112.92,0,0,0,492,649a116.63,116.63,0,0,0,44.23-5.07,108.56,108.56,0,0,0,23.27-10.52,4.72,4.72,0,1,0-4.76-8.15,105,105,0,0,1-9.41,5c-.78.36-1.56.72-2.35,1.06l-.54.24c-.07,0-.68.29-.17.07l-.16.07-.74.3c-1.65.68-3.33,1.3-5,1.89a112.25,112.25,0,0,1-20.69,5h.07l-.6.08-1.19.14c-.92.11-1.85.21-2.78.29-1.79.16-3.59.28-5.38.36-3.6.16-7.2.14-10.8,0-1.73-.09-3.45-.22-5.18-.39-.86-.08-1.72-.18-2.58-.28-.36,0-1.48-.2-.53-.06l-1.38-.2q-5.32-.8-10.55-2.11a105.59,105.59,0,0,1-11.38-3.56c-.93-.34-1.85-.71-2.77-1.08l-.55-.23c-.69-.28,1,.45-.15-.07l-1.27-.55q-2.81-1.26-5.53-2.69a4.82,4.82,0,0,0-6.46,1.69c-1.14,2.18-.64,5.24,1.7,6.46Z"/><path class="cls-1" d="M246.32,475.72s-9.95,14.54-21.75,23.2c-8.79,6.47-18.45,8.28-20.3,5.81-4.36-5.81,0-104.42,0-104.42,20.3-233.5,319.05-208.84,319.05-208.84l-8.7,89.92S329,266.88,321.74,413.36c-3.06,61.82-19.8,86.14-46.5,88.58-36.56,3.33-34.72-7.37-34.72-7.37s18.86-50.76,18.86-101.51c0,0-1.42,32.66-2.91,42.05C254.7,446.38,246.32,475.72,246.32,475.72Z"/><path class="cls-1" d="M752,480.07s10,14.54,21.76,23.21c8.79,6.46,18.44,8.27,20.3,5.8,4.35-5.8,0-104.42,0-104.42-20.3-233.49-270.72-213.19-270.72-213.19l-8.7,89.92s154.7-10.16,162,136.32c3.06,61.82,19.79,86.14,46.49,88.58,36.57,3.33,34.72-7.37,34.72-7.37s-18.85-50.75-18.85-101.51c0,0,1.42,32.66,2.9,42C743.61,450.73,752,480.07,752,480.07Z"/></g></g></g></svg>