<svg xmlns="http://www.w3.org/2000/svg" viewBox="0 0 1000 1000"><defs><style>.cls-1,.cls-2{fill:#fff;stroke:#000;stroke-linecap:round;stroke-linejoin:round;}.cls-1{stroke-width:9.21px;}.cls-2{stroke-width:8.75px;}.cls-3{fill:#42210b;}.cls-4{fill:#29abe2;}.cls-5{fill:#fbb03b;}.cls-6{fill:#8cc63f;}.cls-7{fill:#ff7bac;}</style></defs><g id="Tops"><g id="CMIYGL"><polygon class="cls-1" points="325.12 176.27 162.55 291.03 231.88 513.73 271.5 488.03 325.12 176.27"/><polygon class="cls-1" points="667.72 157.46 837.45 289.62 768.12 512.32 721.33 469.22 667.72 157.46"/><path class="cls-2" d="M439.46,230C408.67,222.83,326,174,326,174L209.9,782.18s294.78,137.05,580.62,0l-125-625.27s-78.3,63.56-109.88,73.1C527.8,238.41,467.73,236.61,439.46,230Z"/><g id="TEXT"><path class="cls-3" d="M369.59,368.8a17.85,17.85,0,0,0-19,23.14,24.43,24.43,0,0,0,24.9,17.36c6.26-.5,12.09-3.07,15.94-8.13,1.17-1.54.24-4-1.28-4.9-1.84-1.07-3.72-.25-4.89,1.29.36-.48,0,0-.07.05s-.37.41-.57.61-.65.62-1,.91.38-.27-.09.06c-.23.17-.47.33-.71.49-.44.28-.9.54-1.36.78l-.63.31c-.13.06-.83.35-.29.14-.45.17-.9.33-1.36.47a19.39,19.39,0,0,1-3.19.73c.61-.09-.76.06-.87.07-.49,0-1,0-1.47,0s-1,0-1.45-.06c.08,0-1.1-.11-.6-.05s-.51-.08-.59-.1a16.11,16.11,0,0,1-5.63-2.06c-.43-.24-.84-.5-1.25-.78-.25-.17-.5-.34-.74-.52.12.09.41.35-.14-.11a24.44,24.44,0,0,1-2.32-2.23l-.46-.54c-.06-.06-.43-.53-.1-.11-.28-.36-.55-.75-.8-1.14a18.38,18.38,0,0,1-1.49-2.72c.2.45-.07-.16-.09-.21l-.27-.77a17.81,17.81,0,0,1-.49-1.77A10.84,10.84,0,0,1,357,386c0-.27,0-.54,0-.81,0-.66-.08.4,0-.26a13.5,13.5,0,0,1,.41-1.78,11.65,11.65,0,0,1,1.37-2.77c0-.07.41-.53.07-.11.19-.23.39-.45.59-.67a13.82,13.82,0,0,1,1.31-1.23c.46-.39-.35.24.14-.12.25-.18.51-.35.77-.52.53-.33,1.07-.62,1.63-.9a8.57,8.57,0,0,1,1.24-.46,14.6,14.6,0,0,1,1.82-.44c-.15,0-.59,0,.17,0,.31,0,.62-.05.94-.05a13,13,0,0,1,2.06.12c1.92.25,3.57-1.82,3.57-3.57,0-2.14-1.65-3.33-3.57-3.58Z"/><path class="cls-3" d="M391.65,389.63l-3.22-12.5c-.53-2-1.18-4.11-1.51-6.2a10.57,10.57,0,0,1-.08-2.2,5.53,5.53,0,0,1,.21-.91c.05-.16.1-.32.16-.48-.22.57.09-.12.15-.23s.52-.77.41-.64.55-.54.7-.67c-.37.31.32-.19.45-.27s.52-.26.23-.13.38-.11.44-.13a4.67,4.67,0,0,1,3.67.83,19.05,19.05,0,0,1,3.58,3.51c1.43,1.62,2.85,3.25,4.27,4.87l10,11.43a3.58,3.58,0,0,0,5.06-5.06l-10-11.43c-1.66-1.88-3.3-3.78-5-5.66a18.39,18.39,0,0,0-5-4.23c-4.45-2.33-10.07-1.95-13.53,2s-3.32,8.79-2.13,13.58c1.36,5.5,2.82,11,4.24,16.45a3.57,3.57,0,1,0,6.89-1.9Z"/><path class="cls-3" d="M387.71,380.24A165.92,165.92,0,0,1,407,374.66a3.6,3.6,0,0,0,2.5-4.39,3.65,3.65,0,0,0-4.4-2.5,163.94,163.94,0,0,0-19.32,5.57,3.65,3.65,0,0,0-2.5,4.4c.56,1.73,2.51,3.17,4.4,2.5Z"/><path class="cls-3" d="M416.92,351.15c2.88,8.33,1.61,17.2,2.24,26,.33,4.49,1,8.95,5,11.73,3.64,2.58,8.78,2.44,13,1.6a23.53,23.53,0,0,0,12.27-6.68,3.58,3.58,0,0,0-5.06-5.06,16.21,16.21,0,0,1-7.92,4.57,14.64,14.64,0,0,1-4.72.54,6.39,6.39,0,0,1-3.77-1c.46.34-.56-.6-.35-.34s-.15-.23-.14-.23l-.27-.48c-.19-.35,0,0,0,0-.06-.16-.12-.34-.17-.51a10.7,10.7,0,0,1-.31-1.24c-.05-.24-.09-.48-.13-.72,0,.08.06.48,0,.05s-.1-.87-.13-1.31c-.09-1-.15-2-.19-3-.18-4-.05-8.1-.2-12.14a46.83,46.83,0,0,0-2.18-13.66,3.66,3.66,0,0,0-4.4-2.5,3.61,3.61,0,0,0-2.5,4.4Z"/><path class="cls-3" d="M450.3,342.3c1.93,8.86.83,18.1,1.12,27.13.14,4.45.46,9.35,4,12.58,3.77,3.49,8.76,3.33,13.29,1.52a35.5,35.5,0,0,0,12.29-8c3.23-3.28-1.83-8.34-5.06-5.05a27.56,27.56,0,0,1-8.41,5.86,14.51,14.51,0,0,1-4.44,1.4,4.54,4.54,0,0,1-1.8-.22c.29.12-.24-.15-.23-.14l-.47-.29c-.34-.24,0,0,0,0-.18-.16-.34-.33-.51-.5,0,0-.37-.45-.17-.18s-.17-.28-.21-.35a3.61,3.61,0,0,1-.32-.59,12.58,12.58,0,0,1-.56-2.19,51.93,51.93,0,0,1-.27-6c0-4.19.12-8.38.08-12.58a69.45,69.45,0,0,0-1.41-14.31,3.57,3.57,0,1,0-6.89,1.9Z"/><path class="cls-3" d="M501.05,373.93A124,124,0,0,1,514,337.06h-6.07c4.85,10.69,8.12,22,11.36,33.25.79,2.74,5.05,3.66,6.43.84q6.78-13.87,14.9-27l-6.43-.84C537.24,355,539,367,542.06,378.74a3.52,3.52,0,0,0,6.79-1.87c-3.06-11.73-4.83-23.75-7.89-35.48a3.56,3.56,0,0,0-6.43-.84q-8.1,13.15-14.9,27.05l6.43.84c-3.41-11.86-6.95-23.67-12.07-34.93-1.1-2.42-4.9-2.17-6.07,0a130.24,130.24,0,0,0-13.66,38.55,3.62,3.62,0,0,0,2.46,4.32,3.55,3.55,0,0,0,4.33-2.45Z"/><path class="cls-3" d="M546.76,350.39a49.62,49.62,0,0,1,6.89,16.68c1.35,6.33,2.17,12.61,4.9,18.55.79,1.72,3.29,2.15,4.81,1.26a3.6,3.6,0,0,0,1.26-4.81c-2.56-5.58-3-11.84-4.38-17.76a55,55,0,0,0-7.41-17.47,3.52,3.52,0,0,0-6.07,3.55Z"/><path class="cls-3" d="M555.85,353a60.94,60.94,0,0,1,25.25-1.72c1.89.24,3.52-1.79,3.52-3.52,0-2.1-1.63-3.28-3.52-3.52a66.08,66.08,0,0,0-27.12,2,3.52,3.52,0,0,0,1.87,6.78Z"/><path class="cls-3" d="M558,366.77a73.45,73.45,0,0,1,10.06-.36,70.25,70.25,0,0,1,9.76,1,3.6,3.6,0,0,0,4.33-2.46c.38-1.71-.52-4-2.46-4.33a78.86,78.86,0,0,0-21.69-.87c-1.83.19-3.61,1.48-3.52,3.52.08,1.74,1.56,3.72,3.52,3.51Z"/><path class="cls-3" d="M561.28,384q11,2.17,22.05,4.22a3.6,3.6,0,0,0,4.33-2.46c.39-1.73-.52-4-2.46-4.33q-11-2-22.05-4.21a3.59,3.59,0,0,0-4.33,2.45c-.4,1.75.53,3.95,2.46,4.33Z"/><path class="cls-3" d="M606.15,355.87c2.23,11.06.38,22.42-1.42,33.41a3.51,3.51,0,0,0,2.38,4.18c1.62.45,3.88-.55,4.18-2.37,2-12.27,3.91-24.68,1.42-37a3.43,3.43,0,0,0-4.18-2.37,3.46,3.46,0,0,0-2.38,4.18Z"/><path class="cls-3" d="M621.34,366.65q-.35,16.26-1.56,32.5a3.43,3.43,0,0,0,3.39,3.4,3.47,3.47,0,0,0,3.4-3.4q1.23-16.23,1.56-32.5a3.4,3.4,0,1,0-6.79,0Z"/><path class="cls-3" d="M623.72,366.86a102.14,102.14,0,0,0,22.53,8.32,3.4,3.4,0,1,0,1.81-6.55A93.9,93.9,0,0,1,627.15,361a3.4,3.4,0,1,0-3.43,5.87Z"/><path class="cls-3" d="M625.51,382.74c2.45,1.85,5.7,2.54,8.6,3.37l9.39,2.72a3.4,3.4,0,1,0,1.8-6.55l-9.06-2.63c-1.43-.41-2.87-.8-4.29-1.26l-.84-.3-.55-.21c.37.15.38.15,0,0a11.3,11.3,0,0,1-1.63-1c-1.43-1.07-3.87-.27-4.65,1.22a3.49,3.49,0,0,0,1.21,4.65Z"/><path class="cls-3" d="M335.5,440q6.15,12.8,13,25.22c1.14,2,3.57,2.33,5.52,1.45a5.19,5.19,0,0,0,2.53-3.12c.76-2-.85-4.51-2.82-5a4.14,4.14,0,0,0-5,2.81l-.12.33,1-1.78.27-.24,5.51,1.45q-6.88-12.42-13-25.23a4.06,4.06,0,0,0-5.52-1.45A4.15,4.15,0,0,0,335.5,440Z"/><path class="cls-3" d="M366.31,436.42c-4.6,7.48-9.38,14.89-13.81,22.48a15.17,15.17,0,0,0-2.09,6.72c-.14,2,0,4.07,0,6.09l.05,13.3a4,4,0,0,0,8.06,0l0-12.81c0-2-.1-4.11,0-6.15,0-.14.16-1.29,0-.64a8,8,0,0,1,.34-1.25c-.19.51.26-.52.32-.62.24-.45.51-.89.77-1.33,4.43-7.25,8.91-14.48,13.36-21.72a4,4,0,1,0-7-4.07Z"/><path class="cls-3" d="M374.21,460c-2.7,1.32-4.18,4.06-5.45,6.64a25.7,25.7,0,0,0-2.94,9.42,13.34,13.34,0,0,0,2,8.05,11.2,11.2,0,0,0,8.48,5,15.85,15.85,0,0,0,8.89-2.12,21.6,21.6,0,0,0,6.86-5.27c3.49-4.39,4.09-10.78,3.57-16.21-.32-3.26-1.39-6.77-4.49-8.44-3.32-1.78-7.59-1.15-11.19-.73-2.08.24-4.13,1.68-4,4,.09,2,1.79,4.29,4,4,1.21-.14,2.41-.25,3.62-.32.57,0,1.13-.05,1.7-.06l.89,0c.1,0,1.13.06.7,0s.58,0,.17,0c-.22,0,.06,0,.18.09-.6-.61-.21-.18-.08-.05s.13.4-.06-.1a3.65,3.65,0,0,0,.3.55c-.06-.1-.16-.62-.11-.23s.26,1,.34,1.45c-.15-.81,0,.15,0,.46s0,.78,0,1.18c0,1,0,2.05-.07,3.08,0,.52-.07,1.05-.11,1.57,0,.13-.11.79,0,.1,0,.19-.07.39-.1.58-.08.44-.18.88-.29,1.32-.07.24-.14.49-.22.73,0,0-.39,1-.21.58s-.16.29-.21.38-.19.32-.28.49c-.36.62-.17.29,0,.12a8.11,8.11,0,0,1-.55.62,11.1,11.1,0,0,1-1.07,1c-.53.43.39-.27-.17.12l-.86.59a25.28,25.28,0,0,1-2.71,1.59,9.7,9.7,0,0,1-2.56.85c-.47.09,0,0,.09,0-.26,0-.53,0-.79,0l-.79,0c.18,0,.69.17-.1,0q-.28-.06-.57-.15c-.1,0-.81-.35-.43-.14s-.2-.15-.21-.15c-.93-.61.35.48-.34-.27l-.36-.38c-.4-.39.22.48,0,0-.1-.22-.61-1.17-.32-.47a11,11,0,0,1-.42-1.38c0-.05-.14-.64-.05-.18s0-.43,0-.54a13.51,13.51,0,0,1,1.47-5.81c.52-1.11,1.06-2.23,1.69-3.29l.38-.61c.2-.3.3-.3,0,0,.16-.16.32-.34.49-.49-.51.44.11,0,.36-.13a4.06,4.06,0,0,0,1.45-5.52,4.14,4.14,0,0,0-5.52-1.44Z"/><path class="cls-3" d="M397.42,464.31a34.83,34.83,0,0,0-.64,17,15.88,15.88,0,0,0,3.5,7.47,12.07,12.07,0,0,0,6.89,3.57c5.51,1,11.16.22,15.47-3.55,3.9-3.4,5.73-8.51,6.18-13.54a38.27,38.27,0,0,0-.69-9.78c-.3-1.79-.5-3.69-1.81-5.08a4.46,4.46,0,0,0-6.44-.17,4,4,0,0,0,5.7,5.7l.16-.15-2.85,1.18h.19l-2-.56-.6-.79c-.52-.92-.71-1.1-.56-.56a2.9,2.9,0,0,0,.14.7l.3,1.63c.08.47.16.94.23,1.41.11.77-.05-.43.05.34,0,.32.07.63.1.95.09,1,.15,2,.15,3.06,0,.47,0,.94,0,1.41,0,.31,0,.63-.07.94,0,0-.11.71-.05.32a16.51,16.51,0,0,1-.6,2.52c-.06.16-.37,1-.25.72s-.07.16-.09.2c-.14.27-.27.55-.42.82s-.36.64-.56.95-.79,1.08-.33.51a12.48,12.48,0,0,1-1.77,1.79c.51-.42-.14.08-.34.21s-.62.36-.94.53c-.16.08-.68.22,0,0l-.51.17a9.61,9.61,0,0,1-1.5.35c.49-.07-.79,0-.95,0-.44,0-.88,0-1.32,0s-.89,0-1.33-.06l-.57-.05c-.62,0,.54.15-.06,0-.43-.11-.86-.17-1.29-.3-.23-.07-1-.41-.42-.12-.34-.17-.65-.35-1-.55.54.34.06.06-.05-.06a7.54,7.54,0,0,1-.55-.58c.36.44-.18-.35-.27-.49s-.25-.48-.35-.72c0,.09.18.46,0,0a20.77,20.77,0,0,1-.75-2.81c-.11-.51-.21-1-.28-1.56,0,.19.06.56,0-.28,0-.31-.06-.61-.08-.91a29.82,29.82,0,0,1,0-3.41c0-.53.06-1.05.11-1.58,0-.3.05-.61.1-.91-.06.42,0-.18.05-.27.23-1.2.5-2.37.84-3.54a4,4,0,1,0-7.77-2.14Z"/><path class="cls-3" d="M475,469.67a9.47,9.47,0,0,0-2.83-7,12,12,0,0,0-7.37-3.29,22.13,22.13,0,0,0-7.67.79,22.66,22.66,0,0,0-6.84,2.83c-7,4.57-10.55,13.3-10,21.52a24.65,24.65,0,0,0,5.07,13.83A20,20,0,0,0,455.72,505a20.56,20.56,0,0,0,22.59-8.83,21.62,21.62,0,0,0,2.86-6.55c.62-2.5,1.22-6.06,0-8.44-1.92-3.67-6-2.6-9.28-2.11q-4.51.68-9,1.48a4.05,4.05,0,0,0-2.82,5,4.14,4.14,0,0,0,5,2.81q3.15-.57,6.32-1.06c1-.16,1.95-.3,2.93-.45l1.46-.21a3.92,3.92,0,0,0,1-.14c-.37.28-3-2.52-3-2.56a12.91,12.91,0,0,0-.06,2.16c-.06.79.11-.42-.05.36-.09.47-.19.94-.31,1.4a17.62,17.62,0,0,1-.69,2.05c.25-.63-.08.14-.19.36s-.39.74-.61,1.11-.44.71-.67,1.06c-.14.19-.66.85-.24.34a18.39,18.39,0,0,1-1.59,1.71c-.26.25-.53.49-.8.72s.05,0,.11-.07l-.59.41a15.6,15.6,0,0,1-2,1.17l-.49.23c.06,0,.56-.22.14-.07s-.66.23-1,.33-.78.21-1.18.29l-.51.1c-.59.15.64,0,0,0s-1.39.1-2.09.09c-.35,0-.7,0-1-.05-.13,0-.87-.08-.34,0s-.23,0-.32-.06a17.85,17.85,0,0,1-2-.5c-.33-.1-.65-.24-1-.34s.09.05.15.08l-.63-.29a16.52,16.52,0,0,1-2-1.12c-.13-.09-.87-.65-.57-.4s-.09-.09-.13-.12l-.52-.47c-.29-.27-.58-.56-.85-.86-.11-.12-.68-.84-.46-.54s-.12-.18-.14-.22-.24-.35-.35-.53c-.27-.43-.51-.86-.74-1.31-.06-.12-.48-1-.3-.6a14.87,14.87,0,0,1-.51-1.41,25.57,25.57,0,0,1-.68-2.71c0-.29-.17-1.16-.08-.39,0-.35-.08-.7-.1-1.05a22.39,22.39,0,0,1,0-2.46c0-.7.07-1.41.16-2.11-.09.73,0,0,.08-.32.08-.46.18-.92.3-1.37.17-.68.38-1.35.61-2,.1-.26.4-1,.11-.33.17-.37.34-.73.52-1.09a17.78,17.78,0,0,1,1.14-1.93c.15-.23.61-.83.18-.29.24-.31.5-.61.77-.91s.63-.65,1-1,1-.81.37-.36a14.15,14.15,0,0,1,2.13-1.34,12.48,12.48,0,0,1,2.55-1c1-.29,2-.52,3-.71l.66-.11c-.42.06.14,0,.26,0q.88,0,1.77,0s.7.06.34,0,.46.1.54.12l.63.18c.36.11.49.28.11,0l.47.27c.52.28-.38-.37.06,0l.4.37c.53.46-.05-.18.16.16.09.15.17.32.27.46-.19-.27-.15-.4,0,0,0,.06.16.64.07.15s0,.46,0,.52a4.06,4.06,0,0,0,4,4,4.13,4.13,0,0,0,4-4Z"/><path class="cls-3" d="M476.6,460.27a80,80,0,0,1,3.06,17.55,88.91,88.91,0,0,1,0,9.09,41.42,41.42,0,0,0,.46,9.76,4.07,4.07,0,0,0,5,2.82,4.13,4.13,0,0,0,2.81-5,9.75,9.75,0,0,1-.22-1.72c-.05-.71-.06-1.42-.06-2.12,0-1.5.09-3,.14-4.49a85.62,85.62,0,0,0-.15-9.34,91.08,91.08,0,0,0-3.28-18.74,4,4,0,0,0-7.77,2.15Z"/><path class="cls-3" d="M481.91,464.79q11.07-3,22.31-5.19a4.07,4.07,0,0,0,2.82-5,4.13,4.13,0,0,0-5-2.81Q490.83,454,479.77,457a4,4,0,0,0,2.14,7.77Z"/><path class="cls-3" d="M484.17,484.86c2.87-.71,5.76-1.34,8.68-1.86,1.42-.26,2.85-.5,4.29-.71l1-.15c1-.14-.58.07.31,0l2.42-.29a4.38,4.38,0,0,0,2.85-1.18,4.08,4.08,0,0,0,1.18-2.85c-.09-2-1.79-4.28-4-4A149.2,149.2,0,0,0,482,477.08a4,4,0,0,0,2.15,7.78Z"/><path class="cls-3" d="M482.93,499.24a17.22,17.22,0,0,0,6.36.06l6.52-.74,12.78-1.45c2.09-.23,4.14-1.68,4-4-.08-2-1.78-4.28-4-4l-12.3,1.4-6,.68c-.95.11-1.9.23-2.84.32-.43.05-.87.09-1.3.1a8.26,8.26,0,0,1-.86,0c.37.06.31,0-.19-.07a4,4,0,0,0-2.14,7.77Z"/><path class="cls-3" d="M511.49,459.67l27.39-5.95a4,4,0,0,0,2.81-5,4.13,4.13,0,0,0-5-2.82l-27.39,5.95a4.06,4.06,0,0,0-2.81,5,4.12,4.12,0,0,0,5,2.81Z"/><path class="cls-3" d="M531.49,483.58l-4.64-28.29c-.34-2.08-3-3.43-5-2.81a4.15,4.15,0,0,0-2.82,5l4.64,28.28c.34,2.09,3,3.44,5,2.82a4.15,4.15,0,0,0,2.81-5Z"/><path class="cls-3" d="M553,443.25l6.65,29.95c.28,1.22.46,2.51.85,3.71a4.7,4.7,0,0,0,4.42,3.3,20.84,20.84,0,0,0,4.33-.78l3.87-.8,15-3.08A4.05,4.05,0,0,0,591,470.6a4.13,4.13,0,0,0-5-2.82L575.11,470l-5.32,1.09-2.66.54-1.45.3-.48.1c-.81.12-.65.18.48.16l1.78,1-.2-.25,1,1.77c-.79-2.7-1.25-5.54-1.86-8.29L564.55,458l-3.76-16.91a4.06,4.06,0,0,0-5-2.81,4.12,4.12,0,0,0-2.81,5Z"/><path class="cls-3" d="M578.63,432.23c-6.58,3.24-8.67,11.57-8.86,18.31a15.51,15.51,0,0,0,3.83,11.22,18.44,18.44,0,0,0,9,4.89c7.66,1.93,16.59,1.65,22.79-3.76a14.5,14.5,0,0,0,5-10.2c.2-4-1.56-8.05-3.89-11.24-5.34-7.27-14.13-13.06-23.47-10.16a4,4,0,0,0,2.14,7.77l1.22-.33c1.21-.33-.35,0,.37-.07a16.19,16.19,0,0,1,2.31,0c.09,0,.78.11.18,0,.42.07.83.16,1.24.26l.81.23c.16.05,1.49.58,1,.36a17.7,17.7,0,0,1,3.44,2.08c-.57-.45.45.4.44.4.21.17.41.36.6.54a23.4,23.4,0,0,1,1.7,1.75,15.45,15.45,0,0,1,2.22,3,16.49,16.49,0,0,1,1,1.86c.3.68-.21-.82.14.39.13.47.28.92.39,1.39,0,.17.15,1,.08.34,0,.41,0,.82,0,1.23,0,.09,0,.8,0,.16a6.47,6.47,0,0,1-.23,1.06c-.07.24-.14.46-.22.69.28-.81-.13.25-.19.36s-.3.52-.47.78-.2.3-.31.44c.26-.33.25-.32-.05,0s-.85.88-1.32,1.29c-.83.75.61-.31-.36.26l-.62.4c-.32.19-.65.36-1,.53-.67.36-.21.11,0,0a15.42,15.42,0,0,1-2.56.78c-.43.1-.88.19-1.32.25.58-.08-.35,0-.48,0-.82.06-1.65.07-2.47.06s-1.5-.07-2.25-.14l-.9-.09-.17,0-.71-.12a23.78,23.78,0,0,1-3.52-.86c-.35-.12-.69-.24-1-.37.15.06.66.32,0,0s-1.24-.67-1.84-1c-.92-.58.5.52-.29-.22l-.5-.47a8.53,8.53,0,0,1-.7-.77c.48.62,0,0-.07-.19a8.21,8.21,0,0,1-.46-.88c.25.59,0-.21-.09-.36-.1-.32-.17-.65-.25-1-.08-.49-.1-.54-.05-.14,0-.2,0-.4,0-.61a20.51,20.51,0,0,1,0-2.48c0-.34,0-.68.08-1,0-.15.19-1.53.11-1s.09-.51.09-.51c.07-.41.15-.81.24-1.22.16-.7.34-1.39.56-2.07.09-.29.2-.56.29-.84.17-.44.17-.44,0,0l.23-.48c.3-.62.69-1.18,1-1.78s-.62.62.09-.12c.27-.27.58-.54.83-.83.37-.45-.74.42.1-.1.39-.24.78-.48,1.19-.68a4,4,0,0,0,1.45-5.51,4.13,4.13,0,0,0-5.52-1.45Z"/><path class="cls-3" d="M626.06,423.73a9.88,9.88,0,0,0-7.38-.45,12.64,12.64,0,0,0-6,4.67,25.22,25.22,0,0,0-3.09,6.16,12.44,12.44,0,0,0-.65,7.64c1.36,4.91,6.32,7.48,10.68,9.28.95.38,1.9.74,2.88,1,.44.14.89.25,1.33.38l.69.22c-.45-.16-.16-.18,0,0,0,0-.36-.4-.42-.44s0-.71,0,.17c0-.34,0-.18-.06-.09v.18q.12-.64,0-.21c-.07.27-.41,1.19-.08.5a8,8,0,0,1-.71,1.19c.41-.58.07-.09,0,0s-.41.44-.63.65l-.41.38s-.79.67-.45.39-.16.12-.19.14c-.25.18-.5.36-.76.53-.47.32-1,.62-1.45.91a34.43,34.43,0,0,1-3.05,1.65c-.77.36-.39.16-.22.1-.34.13-.67.24-1,.34-.2.07-.41.13-.61.18,0,0-1.27.23-.62.16-2.08.25-4.14,1.67-4,4,.09,2,1.79,4.3,4,4a25.65,25.65,0,0,0,12.1-5.19c3.78-2.81,6.78-6.67,6-11.63-.45-2.87-2.53-4.75-5.13-5.74-.85-.32-1.74-.52-2.6-.79-.49-.16-1-.32-1.45-.5l-.82-.32c.38.15-.15-.08-.24-.12a29.45,29.45,0,0,1-2.67-1.4c-.39-.23-.78-.48-1.15-.75s0,0,0,0c-.24-.22-.48-.43-.7-.67a3.88,3.88,0,0,1-.39-.42c.4.52,0,0,0-.12s-.31-.7-.06-.08c0,0-.18-.69-.11-.33s0-1.25-.05-.61a8.25,8.25,0,0,1,.44-1.76,13.74,13.74,0,0,1,1.09-2.64c.25-.49.51-1,.81-1.45.14-.23.29-.46.45-.68-.25.33,0,0,.13-.15l.58-.59c.48-.52-.08,0,.23-.2l.48-.3c.59-.38-.16,0,.23-.12l.53-.16c.68-.22-.18-.09.2,0,.16,0,.37,0,.54,0-.94,0,.48.21-.28-.11,1.93.82,4.41.64,5.51-1.45.91-1.72.63-4.63-1.44-5.51Z"/><path class="cls-3" d="M632.56,428.64q15.32-3.61,30.35-8.25a4,4,0,0,0-2.15-7.77q-15,4.63-30.34,8.25a4.07,4.07,0,0,0-2.82,5,4.12,4.12,0,0,0,5,2.81Z"/><path class="cls-3" d="M642.47,425.87l5.33,35.85c.31,2.09,3.06,3.43,5,2.81,2.28-.74,3.15-2.71,2.81-4.95l-5.33-35.85c-.31-2.09-3.06-3.43-5-2.82-2.29.74-3.15,2.72-2.82,5Z"/></g><path class="cls-4" d="M325.94,358.9c.05-.08.63-.88.36-.52s.23-.28.27-.33c.36-.44.74-.86,1.12-1.28a29.76,29.76,0,0,1,2.46-2.31l.59-.48c-.44.36,0,0,.23-.17.46-.33.92-.66,1.39-1,1-.64,1.94-1.23,2.94-1.78a65.49,65.49,0,0,1,6.08-2.95l.29-.12.72-.3,1.62-.64c1.14-.45,2.28-.88,3.42-1.31l-4.95-4.95a90.36,90.36,0,0,1-10.79,26.71l7.37,1a133,133,0,0,1-6-29.65l-6.88,2.85c9.43,7.68,16.88,17.89,27.91,23.48a4.08,4.08,0,0,0,6.07-3.48c.19-5-5.46-5.85-9.16-6.74l-11.32-2.72a69.45,69.45,0,0,0-11.23-2.2,17,17,0,0,0-5.94.61c-.82.25-1.59.62-2.39.92l-1,.33c-.29.06-.27.08.07,0a3.73,3.73,0,0,1-.82,0,4.05,4.05,0,0,0-4,4,4.12,4.12,0,0,0,4,4A10.28,10.28,0,0,0,323,359a15.09,15.09,0,0,1,2.26-.78c.09,0,1-.18.47-.12a10.18,10.18,0,0,1,1.11-.06,14.66,14.66,0,0,1,3.89.37c1.63.32,3.23.73,4.83,1.11l9.65,2.32,5.06,1.21,2.41.58a3.91,3.91,0,0,0,.86.25c-.82.58-1.43-3.63-1.48-2.21l6.06-3.48a44.09,44.09,0,0,1-3.83-2.2c-.61-.4-1.22-.81-1.82-1.24l-.8-.59c-1.05-.77.56.47-.46-.35-2.26-1.8-4.4-3.74-6.48-5.75-4.25-4.08-8.31-8.36-12.89-12.09a4.12,4.12,0,0,0-4.4-.83,4,4,0,0,0-2.48,3.68,141.16,141.16,0,0,0,6.31,31.79,4.08,4.08,0,0,0,7.36,1,100.36,100.36,0,0,0,11.6-28.64c.64-2.74-1.92-6.1-5-5-9.91,3.72-20,7.89-26.31,16.86a4,4,0,0,0,1.45,5.51,4.13,4.13,0,0,0,5.51-1.44Z"/><path class="cls-5" d="M387.32,326.87a50.18,50.18,0,0,1,17.32-3.68l-3.48-6.07q-7.11,10.9-13.37,22.33l7.37,1c-1.58-10-2.77-20-3.63-30.26L384.65,313l21.25,22.42-1-3.92.18-.51,1.44-1.45a3.22,3.22,0,0,1,1-.24c.62.12.63.12,0,0l-1.39-.27c-1.08-.22-2.15-.44-3.23-.68-2.14-.48-4.28-1-6.4-1.58-4.25-1.14-8.44-2.49-12.56-4a4,4,0,0,0-5,2.81,4.14,4.14,0,0,0,2.81,5,144.08,144.08,0,0,0,23.58,6.53c2.58.47,5.2.3,6.77-2.12a4.34,4.34,0,0,0-.48-5.24c-.69-.82-1.49-1.57-2.22-2.35l-8.92-9.4-10.11-10.67c-2.28-2.41-7.17-.68-6.88,2.85q1.35,16.26,3.92,32.4a4,4,0,0,0,7.36,1q6.27-11.41,13.37-22.33a4.07,4.07,0,0,0-3.48-6.07,57.51,57.51,0,0,0-19.47,4c-1.95.78-3.53,2.73-2.81,5,.61,1.89,2.86,3.65,5,2.81Z"/><path class="cls-6" d="M464,311l31.11-1.27-2.85-6.88a177.16,177.16,0,0,0-20.73,19.24l6.88,2.85c1.14-9.83,2.39-19.11,3.91-28.91L475,297c3.79,8.6,7.63,17.24,13.18,24.87l5.51-5.51L468.44,305c-1.92-.86-4.43-.62-5.52,1.45-.93,1.76-.61,4.59,1.45,5.51l25.22,11.3a4.19,4.19,0,0,0,4.88-.63c1.13-1.23,1.7-3.42.63-4.89-5.55-7.63-9.39-16.27-13.18-24.86-1.34-3-6.85-2.37-7.37,1q-2.39,15.48-4.19,31.05a4,4,0,0,0,2.48,3.68,4,4,0,0,0,4.4-.83A177.16,177.16,0,0,1,498,308.52a4.05,4.05,0,0,0-2.85-6.88L464,302.91a4,4,0,1,0,0,8.06Z"/><path class="cls-7" d="M546.37,311.63A129.57,129.57,0,0,0,570,314.44l-3.89-5.1c.11-.32.16-.47,0-.06l-.16.27c.28-.34.32-.41.13-.19a3.26,3.26,0,0,0-.46.45c-.3.38.46-.25,0,0-.86.47-1.68.95-2.58,1.36.56-.25.13-.06-.19.07l-1.37.58c-.54.24-1.09.47-1.63.72-1.21.55-2.41,1.13-3.6,1.75A81.88,81.88,0,0,0,543,323l6.88,2.85c.13-1.28.22-2.05.36-3s.34-2.11.54-3.16q.6-3.27,1.47-6.48t2-6.35c.73-2.09,1.53-4.1,2.31-5.84L553,303a2.5,2.5,0,0,1-2-1.09c.13.22.25.45.37.68.28.54.55,1.08.81,1.63.47,1,.92,1.92,1.35,2.89.28.64.29.68.48,1.14s.34.84.5,1.27q.62,1.59,1.17,3.21a82.09,82.09,0,0,1,3.25,13l6.74-3.93A213.34,213.34,0,0,0,543.15,303a4.06,4.06,0,0,0-5.52,1.44,4.15,4.15,0,0,0,1.45,5.52A199.15,199.15,0,0,1,560,327.51a4.09,4.09,0,0,0,4.88.63,4.23,4.23,0,0,0,1.85-4.55,85.08,85.08,0,0,0-7.56-23.45c-1-2.12-2.09-4.25-4.49-5a4.45,4.45,0,0,0-4.8,1.42,16.17,16.17,0,0,0-1.73,3.69,86.23,86.23,0,0,0-3.85,11.5,95.54,95.54,0,0,0-2.48,14.14,4,4,0,0,0,2.47,3.69,4.16,4.16,0,0,0,4.41-.84c.76-.6,1.67-1.29,2.74-2s2.19-1.51,3.32-2.23a75.24,75.24,0,0,1,7.19-4c1.08-.53,2.49-1.18,3.36-1.55s2.27-.93,3.25-1.43a10.49,10.49,0,0,0,5.32-6c.87-2.56-1.4-5-3.88-5.1a114.28,114.28,0,0,1-21.49-2.53,4.12,4.12,0,0,0-5,2.82c-.46,2,.61,4.49,2.82,5Z"/><path class="cls-4" d="M633.28,333.56a237.83,237.83,0,0,1,26.16.34l-3.89-5.1c-.11.49,0,.43.25-.17s.41-.64.07-.26c0-.18.53-.34-.14.05l-2.24,1.31-4.42,2.58L640,337.59l5.92,4.55a192.14,192.14,0,0,0,4.78-21.2l-7.37,1a278.14,278.14,0,0,1,13.87,28.73l5.92-4.55q-8.4-4.84-16.56-10.07c-2.6-1.67-5.21-3.34-7.75-5.1l-.76-.54c-1-.71.29.26-.23-.19a16.59,16.59,0,0,1-1.37-1.28c-.2-.22-.49-.65-.17-.17-.16-.25-.29-.53-.46-.76s-.12-.21,0,.16l-.1-.33-.09-.34c0,.49,0,.5,0,0a4,4,0,0,0-8.06,0c.38,7.29,7.84,10.95,13.24,14.45q9,5.79,18.19,11.12a4,4,0,0,0,4.47-.31,4,4,0,0,0,1.45-4.24,291.14,291.14,0,0,0-14.67-30.66,4,4,0,0,0-4-1.92A4,4,0,0,0,643,318.8a192.14,192.14,0,0,1-4.78,21.2,4.07,4.07,0,0,0,5.92,4.55l10.31-6,5.05-2.95c1.74-1,3.57-2.49,3.87-4.64.38-2.69-1-4.9-3.88-5.1a237.83,237.83,0,0,0-26.16-.34,4,4,0,1,0,0,8.06Z"/><path class="cls-7" d="M290.38,430a146.1,146.1,0,0,1,16.69-5.5q4.2-1.1,8.46-1.95c1.38-.27,2.76-.52,4.15-.76l2.31-.37.93-.14.79-.11-2.85-6.88a225.13,225.13,0,0,1-22.74,23.07l6.88,2.85c.32-5,1.93-10.49,3.32-15.68l4.43-16.5.51-1.92a7.79,7.79,0,0,0,.58-2.15l-2.09.71c-.93,1-1.73,1.12-2.39.47.27.12.25.59,0,0,.26.65.66,1.28,1,1.91,1.15,2.31,2.25,4.63,3.34,7,2.25,4.8,4.45,9.63,6.8,14.38a137.56,137.56,0,0,0,8.7,15.37l5.51-5.51a156,156,0,0,0-40.14-12.42c-2.07-.34-4.44.54-5,2.81-.44,1.95.59,4.6,2.81,5a152.15,152.15,0,0,1,19.78,4.61,143.48,143.48,0,0,1,18.44,7,4.18,4.18,0,0,0,4.89-.63,4.12,4.12,0,0,0,.63-4.89c-6.47-9.72-11.11-20.45-16.08-31a68.23,68.23,0,0,0-3.82-7.77,6.72,6.72,0,0,0-4-3.1,5,5,0,0,0-5.66,2.69,28.49,28.49,0,0,0-1.41,4.66L303.89,410,301.45,419c-1.87,7-4.05,13.94-4.51,21.18a4,4,0,0,0,2.48,3.68,4.11,4.11,0,0,0,4.4-.83A225.13,225.13,0,0,0,326.56,420a4.12,4.12,0,0,0,.83-4.41c-.56-1.31-2.13-2.68-3.68-2.47a149.34,149.34,0,0,0-35.47,9.12c-2,.77-3.54,2.73-2.82,4.95.62,1.9,2.86,3.65,5,2.82Z"/><path class="cls-6" d="M315.21,513.7a92.3,92.3,0,0,1,20.41-5.35l-4.55-5.92a92.92,92.92,0,0,1-15.42,19.22l6.73,1.78-6.94-28.07-5.92,4.56c4.76,3.64,10,7.92,14.66,12.08q3.63,3.19,7.14,6.52c1.07,1,2.14,2,3.15,3.08a17.9,17.9,0,0,1,2.59,3.23l2.41-5.92c.2,0,.76.18.32,0s-.69-.19-1-.31c-.68-.24-1.35-.52-2-.78l-4.41-1.71-8.81-3.42-17.62-6.84c-2-.77-4.51.84-5,2.81a4.14,4.14,0,0,0,2.81,5l18.56,7.2,9,3.51c3.25,1.27,6.67,3.2,10.24,2.36a4.05,4.05,0,0,0,2.41-5.92,41.3,41.3,0,0,0-6.66-7.62q-3.67-3.48-7.48-6.84c-5.26-4.64-10.71-9.07-16.29-13.34-1.26-1-3.34-.56-4.47.31a4.07,4.07,0,0,0-1.45,4.24l6.94,28.06a4.07,4.07,0,0,0,6.74,1.78A104.16,104.16,0,0,0,338,506.5a4.06,4.06,0,0,0-.31-4.48,4.21,4.21,0,0,0-4.24-1.45,92.33,92.33,0,0,0-20.41,5.36c-2,.76-3.53,2.74-2.82,5,.62,1.9,2.86,3.63,5,2.81Z"/><path class="cls-5" d="M399.52,525.74l11.13-1.2,5.44-.59,2.72-.29,1.48-.16.5-.06q1.43,0-1.35-.72l-1-1.78a2.93,2.93,0,0,1,.05-1c-.06.24-.14.47-.22.7-.41,1.16.28-.49-.26.6a25.69,25.69,0,0,1-1.49,2.6c-1.1,1.7-2.34,3.31-3.54,4.94L409,534.15l-2,2.77-.88,1.19-.58.79a2.07,2.07,0,0,1,1.1-.73h2.14q2.4,3,1.62,1.28l-.33-.89c-.2-.52-.39-1-.58-1.55-.42-1.12-.82-2.24-1.21-3.37-.72-2.1-1.39-4.22-1.94-6.37a34.62,34.62,0,0,1-1.11-12.86l-6.06,3.48a27.11,27.11,0,0,1,2.34,1.84c.91.78,1.78,1.59,2.63,2.43a64,64,0,0,1,4.82,5.33c.36.44.71.88,1.06,1.33-.25-.33.07.1.15.19l.51.68c.72,1,1.43,1.95,2.12,2.94,1.42,2,2.8,4.1,4.15,6.18l4.56-5.92a335.73,335.73,0,0,1-33.61-11c-2-.77-4.51.84-5,2.81a4.14,4.14,0,0,0,2.81,5,333.19,333.19,0,0,0,33.61,11c3.26.88,6.53-2.91,4.56-5.92-5.81-8.87-12-17.55-20.68-23.81a4,4,0,0,0-4.07,0,4.21,4.21,0,0,0-2,3.48c-.64,6,.45,12,2.16,17.75.87,2.89,1.9,5.72,3,8.55.58,1.55,1.06,3.21,2.43,4.27a4.88,4.88,0,0,0,6.41-.3,24.48,24.48,0,0,0,2.82-3.69l2.92-4c1.71-2.33,3.44-4.65,5.14-7a28.27,28.27,0,0,0,4.09-7.44,5.58,5.58,0,0,0-.62-5.18,5.38,5.38,0,0,0-5.16-2c-6.92.72-13.85,1.49-20.77,2.24-2.09.23-4.14,1.69-4,4,.09,2,1.78,4.28,4,4Z"/><path class="cls-4" d="M474.71,528.32l19.18-2.75c6-.86,11.94-2,18.22-1.15l-2-7.51-26.69,20.51,6.07,3.48a110.37,110.37,0,0,1,1.74-26.29L485.28,517l.64.34c-.57-.34,0,0,.15.19s.5.62.28.31.27.44.31.52c.67,1.07,1.29,2.18,1.91,3.27,1.37,2.45,2.69,4.94,3.93,7.46a146.11,146.11,0,0,1,6.33,14.73l5.92-4.55a285.16,285.16,0,0,1-33.25-16.9,4,4,0,1,0-4.07,7,285.16,285.16,0,0,0,33.25,16.9,4.16,4.16,0,0,0,4.48-.31,4,4,0,0,0,1.44-4.24,168.27,168.27,0,0,0-7.35-17.08q-2-4-4.18-7.85c-1.45-2.53-3-5.41-5.72-6.71-2.16-1-5.39-.35-5.92,2.41a118.94,118.94,0,0,0-2,28.43,4.12,4.12,0,0,0,2,3.48,3.94,3.94,0,0,0,4.07,0l26.69-20.51c1.39-1.07,2.45-2.72,1.85-4.56a4.3,4.3,0,0,0-3.89-3c-6.62-.88-13.32.44-19.87,1.38l-19.68,2.81c-2.09.3-3.42,3.07-2.81,5,.74,2.3,2.71,3.14,5,2.82Z"/><path class="cls-6" d="M556.23,517.55l40.64-11.22-4.55-5.92c-.43.67-.88,1.32-1.35,2,0,0-.76,1-.33.45l-.75.93c-1,1.18-2,2.32-3,3.43-2.14,2.29-4.41,4.46-6.65,6.64-4.61,4.49-9.14,9.13-12.51,14.66l7.36,1c-.63-4.6-1.1-10.08-1.3-15.05-.22-5.23-.17-10.46.11-15.69L567,501.55a251.64,251.64,0,0,1,17.18,21.27l3.48-6.06a266,266,0,0,1-29.74-4.4,4.11,4.11,0,0,0-5,2.81c-.46,2,.61,4.51,2.82,5a288.15,288.15,0,0,0,31.88,4.69c2.92.26,5.2-3.68,3.48-6.07a273.94,273.94,0,0,0-18.44-22.9,4,4,0,0,0-4.41-.83,4.07,4.07,0,0,0-2.47,3.68,172.15,172.15,0,0,0,1.48,32.88c.21,1.55,2,2.71,3.35,2.89a4.06,4.06,0,0,0,4-1.92c.41-.68.84-1.35,1.29-2,.22-.33.45-.65.68-1,0,0,.75-1,.33-.45.92-1.21,1.92-2.36,2.94-3.48,2.1-2.32,4.34-4.51,6.58-6.69,4.64-4.5,9.22-9.06,12.79-14.48,2-3-1.28-6.82-4.55-5.92l-40.64,11.21a4,4,0,1,0,2.14,7.78Z"/><path class="cls-7" d="M648.36,482.63a210.35,210.35,0,0,1,30.85-11.41l-3.11-.41.23.14-1.45-1.44a2.66,2.66,0,0,1-.3-1.55,1,1,0,0,1,.19-.63l-.44.83-1.24,2.31c-.8,1.46-1.6,2.91-2.42,4.36q-2.38,4.25-4.9,8.42-5.09,8.44-10.66,16.58h7c-.14-.24-.28-.48-.41-.72,0,0-.29-.61-.14-.26s-.09-.28-.09-.28c-.09-.26-.17-.52-.25-.79s-.19-.8-.27-1.2-.1-.55-.14-.82c.06.44,0,0,0-.18-.15-2-.2-4-.25-6s-.06-4.16,0-6.25c0-1,.11-2.07.2-3.1q.06-.66.15-1.32c-.07.54,0-.18,0-.24,0-.29.09-.58.14-.87a28.22,28.22,0,0,1,1.66-5.91c-.19.43.29-.51.31-.59.05-.34,0,.05-.15.15a2.19,2.19,0,0,1-1.52.51c-.14,0-1-.28-1.06-.24s0,0,.18.22c.41.47.87.9,1.3,1.35q4.51,4.75,8.77,9.74c3.18,3.73,6.2,7.5,9,11.25l4.55-5.92a178,178,0,0,0-20.25-6.49q-5-1.29-10.12-2.27c-1.59-.31-3.17-.61-4.73-1a15.74,15.74,0,0,1-4.3-1.67,4,4,0,0,0-4.07,7,32.64,32.64,0,0,0,10.09,3.33c3.53.69,7,1.45,10.52,2.32A178.86,178.86,0,0,1,682,496.11c3.15,1.22,6.61-3.17,4.55-5.92a239.73,239.73,0,0,0-20.17-23.8,7.18,7.18,0,0,0-4.06-2.39,5.82,5.82,0,0,0-4.88,1.51c-1.79,1.72-2.63,4.38-3.31,6.71a52.69,52.69,0,0,0-1.68,15.11c0,5.5-.25,11.68,2.69,16.57a4.08,4.08,0,0,0,7,0q8.85-12.94,16.49-26.66c.62-1.11,1.22-2.22,1.83-3.33a22.91,22.91,0,0,0,2-4,5.34,5.34,0,0,0-.53-4.43,4.67,4.67,0,0,0-2.63-2,6.32,6.32,0,0,0-3.28.33c-5,1.44-9.92,3.07-14.78,4.87-5.72,2.11-11.34,4.47-16.86,7a4,4,0,0,0-1.45,5.51,4.15,4.15,0,0,0,5.52,1.45Z"/><path class="cls-5" d="M680.66,402.55l19.93-3.32-5.1-3.89c0-.42,0-.19,0,.1s-.14.5-.23.75c.14-.41,0-.11-.07.11s-.26.46-.4.69-.3.45-.45.67c.24-.35,0,0-.12.15-.35.41-.72.82-1.09,1.22-1.81,2-3.66,3.85-5.5,5.78l-11.08,11.64,6.33,4.88c5.68-11.22,6-23.88,6.06-36.2l-7.51,2a165.38,165.38,0,0,1,15.84,31.17l5.92-4.55-29-17.63a4.06,4.06,0,0,0-5.51,1.45,4.11,4.11,0,0,0,1.44,5.51l29.05,17.63a4.06,4.06,0,0,0,4.48-.31A4,4,0,0,0,705,416.2a173.05,173.05,0,0,0-16.65-33.1c-2.13-3.29-7.5-2.09-7.51,2a153,153,0,0,1-.72,17.13c0,.29-.07.58-.11.87.07-.55,0,.35-.07.44-.11.72-.22,1.44-.36,2.15-.25,1.35-.54,2.69-.9,4s-.8,2.76-1.29,4.12a30.19,30.19,0,0,1-1.51,3.4,4,4,0,0,0,6.33,4.89l12.11-12.71c3.89-4.09,8.75-8.09,9.21-14.1.22-2.85-2.74-4.28-5.1-3.89l-19.93,3.33c-2.09.35-3.44,3-2.82,5a4.14,4.14,0,0,0,5,2.81Z"/></g></g></svg>