<svg xmlns="http://www.w3.org/2000/svg" viewBox="0 0 1000 1000"><defs><style>.cls-1,.cls-2,.cls-3{fill:#ccc;}.cls-1,.cls-2,.cls-3,.cls-6{stroke:#000;}.cls-1,.cls-2,.cls-6{stroke-linejoin:round;}.cls-1,.cls-3{stroke-width:5.35px;}.cls-2{stroke-width:5.24px;}.cls-3{stroke-miterlimit:10;}.cls-4{fill:#fff;}.cls-5{fill:#003;}.cls-6{fill:none;stroke-width:4.93px;}</style></defs><g id="Tops"><g id="Grey_Hoodie" data-name="Grey Hoodie"><polygon class="cls-1" points="812.09 562.34 835.72 588.24 775.63 640.62 747.58 615.89 812.09 562.34"/><polygon class="cls-2" points="581.69 431.86 747.76 624.53 821.72 562.18 602.82 307.16 581.69 431.86"/><polygon class="cls-1" points="187.91 572.2 164.28 598.1 224.37 650.48 252.42 625.75 187.91 572.2"/><polygon class="cls-2" points="418.31 441.72 252.24 634.39 178.28 572.04 397.18 317.02 418.31 441.72"/><path class="cls-3" d="M503,351.89,396.46,317l-71,371.92s180.28,83.82,355.1,0l-76.49-382.4-62.82,29.64Z"/><polygon class="cls-2" points="383.1 273.7 366.41 294.27 388.26 320.46 502.99 351.89 437.8 282.44 383.1 273.7"/><polygon class="cls-2" points="624.76 276.02 639.56 294.27 617.71 320.46 502.99 351.89 568.2 284.06 624.76 276.02"/><path class="cls-4" d="M402.21,415.3l-1.32,19.4a123.74,123.74,0,0,0-.31,18.06,78.62,78.62,0,0,0,1.92,12.85,56,56,0,0,0,4.27,11.2,50.61,50.61,0,0,0,6.34,9.19,44.13,44.13,0,0,0,8.4,7.5,40.19,40.19,0,0,0,9.66,4.87,20.51,20.51,0,0,0,3.19.94,44.91,44.91,0,0,0,7.92,1,33.79,33.79,0,0,0,11.33-1.69,41.58,41.58,0,0,0,10.61-5.12A56.43,56.43,0,0,0,473,486.1a69,69,0,0,0,7.23-9.37,48,48,0,0,0,3.59-6.66,63.24,63.24,0,0,0,6.36-23.49,50.75,50.75,0,0,0,.28-8.54,63,63,0,0,0-4.25-20.82,12.87,12.87,0,0,0-3.09-5.87,13,13,0,0,0-4.84-4.45,12.8,12.8,0,0,0-6.41-2,13.09,13.09,0,0,0-6.88.3c-4.18,1.36-8.21,3.94-10.32,7.93l-1.74,4.13a17.4,17.4,0,0,0,0,9.17,49.18,49.18,0,0,1,3.24,12l-.62-4.59a52.76,52.76,0,0,1,0,13.58l.61-4.59a52.33,52.33,0,0,1-3.52,13.11l1.74-4.12a49.56,49.56,0,0,1-6.23,10.73l2.7-3.49a38.22,38.22,0,0,1-6.64,6.69l3.49-2.7a28.48,28.48,0,0,1-6,3.53l4.12-1.73a22.8,22.8,0,0,1-5.14,1.43l4.59-.61a20.18,20.18,0,0,1-5.15,0l4.59.62a21.16,21.16,0,0,1-5.06-1.42l4.12,1.74a24.72,24.72,0,0,1-5.16-3.08l3.49,2.7a29.54,29.54,0,0,1-5.08-5.16l2.7,3.49a32,32,0,0,1-4-6.94l1.74,4.12a43.41,43.41,0,0,1-2.7-10.58l.62,4.58a101.4,101.4,0,0,1-.11-19.4c.46-7,1-14,1.43-21a19.12,19.12,0,0,0-5.05-12.2c-3-3-7.9-5.25-12.2-5.06-4.46.2-9.09,1.67-12.2,5.06l-2.7,3.49a17.2,17.2,0,0,0-2.36,8.71Z"/><path class="cls-4" d="M529.85,409a61.56,61.56,0,0,0-9.49-4.52,37.58,37.58,0,0,0-6.4-2c-8.06-1.67-17.18-2.45-24.6,1.91a29.41,29.41,0,0,0-4.24,3.22,7.7,7.7,0,0,0-1,1.05,29,29,0,0,0-4,5.57,98.92,98.92,0,0,0-4.12,10,101.32,101.32,0,0,0-3.82,13.36,136.15,136.15,0,0,0-2.51,17.88,51.65,51.65,0,0,0-.17,6.58,62.56,62.56,0,0,0,.93,7.35,17.27,17.27,0,0,0,.93,3.25,33.3,33.3,0,0,0,7.11,11.73,30.92,30.92,0,0,0,7.61,5.84,43.58,43.58,0,0,0,20.51,5.1,56.46,56.46,0,0,0,7.47-.37,48.09,48.09,0,0,0,9.66-1.72,32.45,32.45,0,0,0,11.8-6.68,25.75,25.75,0,0,0,4.22-5.15,9.76,9.76,0,0,0,.59-1,33.53,33.53,0,0,0,2.15-5.31,17.82,17.82,0,0,0-1.74-13.29c-2.1-3.58-6.2-7-10.31-7.93-4.42-1-9.38-.79-13.3,1.74a18,18,0,0,0-7.93,10.31,9.43,9.43,0,0,1-.29.9l1.74-4.12a7.85,7.85,0,0,1-1.07,1.81l2.7-3.49a9.2,9.2,0,0,1-1.52,1.47l3.5-2.7a13.81,13.81,0,0,1-2.76,1.54l4.12-1.74a23.79,23.79,0,0,1-5.82,1.47l4.59-.62a47.73,47.73,0,0,1-11.58.16l4.59.62a25.12,25.12,0,0,1-6.17-1.59l4.12,1.74a19.48,19.48,0,0,1-4.19-2.43l3.49,2.7a16.82,16.82,0,0,1-2.62-2.58l2.7,3.49a14.62,14.62,0,0,1-1.75-2.95l1.74,4.13a18,18,0,0,1-1.17-4.51l.62,4.59c-.55-4.72,0-9.6.64-14.28l-.62,4.58a101.26,101.26,0,0,1,6.92-25.32l-1.74,4.12a16.16,16.16,0,0,1,1.81-3.28l-2.7,3.5a7.87,7.87,0,0,1,1.3-1.28l-3.5,2.7a6.67,6.67,0,0,1,1-.58l-4.12,1.74a8.79,8.79,0,0,1,2-.54l-4.58.62A27.63,27.63,0,0,1,507,436l-4.59-.61a36.66,36.66,0,0,1,9.13,2.54l-4.12-1.74a38,38,0,0,1,5,2.61,12.91,12.91,0,0,0,6.41,2.05,13.09,13.09,0,0,0,6.88-.31A17.62,17.62,0,0,0,536,432.65c2.11-4,3.17-8.86,1.74-13.3A18.5,18.5,0,0,0,529.85,409Z"/><path class="cls-4" d="M544.47,438.33a293.34,293.34,0,0,0,40.07-2.53,13,13,0,0,0,6.65-1.49,12.79,12.79,0,0,0,5.55-3.57c3-3,5.25-7.9,5.06-12.2-.2-4.46-1.67-9.09-5.06-12.2l-3.49-2.7a17.17,17.17,0,0,0-8.71-2.35,294.94,294.94,0,0,1-40.07,2.53,17.74,17.74,0,0,0-12.2,5.05c-3,3-5.25,7.9-5.06,12.2.2,4.46,1.67,9.09,5.06,12.2a18,18,0,0,0,12.2,5.06Z"/><path class="cls-4" d="M550.33,427.49q1,5.26,1.7,10.57l-.62-4.59a217.83,217.83,0,0,1,1.12,47.61,19.12,19.12,0,0,0,5.05,12.2c3,3,7.9,5.25,12.2,5.06,4.46-.2,9.09-1.67,12.2-5.06l2.7-3.49a17.18,17.18,0,0,0,2.36-8.71,234.33,234.33,0,0,0-3.43-62.77A19.29,19.29,0,0,0,575.68,408a12.92,12.92,0,0,0-6.42-2.05,13.1,13.1,0,0,0-6.88.31c-4.17,1.35-8.2,3.94-10.31,7.93l-1.74,4.12a17.44,17.44,0,0,0,0,9.18Z"/><path class="cls-4" d="M552.61,500.07l39.44.51a17.67,17.67,0,0,0,12.2-5.05c3-3,5.25-7.9,5.06-12.2-.2-4.46-1.67-9.09-5.06-12.2a18.16,18.16,0,0,0-12.2-5.06l-39.44-.51a17.69,17.69,0,0,0-12.2,5.05c-3,3-5.25,7.9-5,12.2.2,4.47,1.66,9.09,5,12.2a18.07,18.07,0,0,0,12.2,5.06Z"/><path class="cls-5" d="M409.61,415.3q-.66,9.7-1.33,19.4a123.74,123.74,0,0,0-.3,18.06,54.61,54.61,0,0,0,5.18,20.32,39.68,39.68,0,0,0,12.08,14,29.89,29.89,0,0,0,17,5.78,31.1,31.1,0,0,0,18.2-5.8c10.11-7.16,17.06-18,20.39-29.88,3.44-12.29,3.12-26.18-1.78-38-1-2.48-2.12-4.48-4.53-5.89a9.86,9.86,0,0,0-13.49,3.54c-1.15,2.18-2,5.2-1,7.59a49.3,49.3,0,0,1,3.24,12l-.35-2.62a52.32,52.32,0,0,1,0,13.58l.36-2.63a52.66,52.66,0,0,1-3.53,13.11l1-2.35a48.89,48.89,0,0,1-6.22,10.73l1.54-2a38.63,38.63,0,0,1-6.64,6.7l2-1.55a28.17,28.17,0,0,1-6,3.54l2.36-1a22.43,22.43,0,0,1-5.14,1.43l2.62-.35a19.73,19.73,0,0,1-5.15,0l2.62.35a21.29,21.29,0,0,1-5.06-1.42l2.36,1a24.79,24.79,0,0,1-5.17-3.08l2,1.54a29.89,29.89,0,0,1-5.08-5.16l1.54,2a32.71,32.71,0,0,1-4-6.95l1,2.36a43,43,0,0,1-2.7-10.59l.35,2.62a101.4,101.4,0,0,1-.1-19.4c.46-7,1-14,1.43-21a9.86,9.86,0,0,0-16.83-7,10.88,10.88,0,0,0-2.89,7Z"/><path class="cls-5" d="M526.11,415.42A44.08,44.08,0,0,0,512,409.68c-6-1.25-13.34-2.11-18.91,1.16s-7.82,9.61-9.93,15.41a100.2,100.2,0,0,0-3.81,13.36,118.7,118.7,0,0,0-2.26,15.92c-.37,5-.45,10.47,1.43,15.22a24.36,24.36,0,0,0,11.32,13.15A35.84,35.84,0,0,0,506.62,488c11.13.2,25.3-2.4,28.76-14.85,1.38-5-1.71-10.95-6.89-12.13a10,10,0,0,0-12.13,6.89,9.24,9.24,0,0,1-.29.89l1-2.35a8.09,8.09,0,0,1-1.06,1.82l1.54-2a9.63,9.63,0,0,1-1.52,1.47l2-1.55a14.06,14.06,0,0,1-2.75,1.55l2.35-1a23.9,23.9,0,0,1-5.82,1.47l2.62-.35a48.24,48.24,0,0,1-11.58.16l2.62.35a24.47,24.47,0,0,1-6.17-1.59l2.36,1a19.65,19.65,0,0,1-4.19-2.43l2,1.54a16.82,16.82,0,0,1-2.62-2.58l1.55,2a14.36,14.36,0,0,1-1.75-2.94l1,2.35a18,18,0,0,1-1.17-4.5l.35,2.62c-.55-4.72,0-9.6.64-14.28l-.35,2.62A100.79,100.79,0,0,1,504,426.83l-1,2.36a15.64,15.64,0,0,1,1.81-3.28l-1.54,2a7.87,7.87,0,0,1,1.3-1.28l-2,1.54a9,9,0,0,1,1-.58l-2.36,1a8.87,8.87,0,0,1,2-.54l-2.62.36a27.09,27.09,0,0,1,6.42.24l-2.63-.36a37.31,37.31,0,0,1,9.14,2.55l-2.36-1a38.54,38.54,0,0,1,5,2.61c4.38,2.74,11.05,1.08,13.49-3.53a10.07,10.07,0,0,0-3.54-13.5Z"/><path class="cls-5" d="M544.47,430.93a291.76,291.76,0,0,0,40.07-2.53,7.42,7.42,0,0,0,3.8-.85,7.3,7.3,0,0,0,3.17-2,10,10,0,0,0,2.89-7,9.93,9.93,0,0,0-2.89-7c-1.78-1.63-4.45-3.22-7-2.89a293.34,293.34,0,0,1-40.07,2.53c-5.16,0-10.1,4.56-9.86,9.86a10,10,0,0,0,9.86,9.86Z"/><path class="cls-5" d="M557.46,425.52q1,5.26,1.7,10.58l-.36-2.63a217.83,217.83,0,0,1,1.12,47.61c-.21,2.39,1.25,5.33,2.89,7a9.85,9.85,0,0,0,13.94,0,11,11,0,0,0,2.89-7,227,227,0,0,0-3.16-60.8,10,10,0,0,0-4.53-5.9,10.09,10.09,0,0,0-7.6-1,10,10,0,0,0-5.9,4.53,11.1,11.1,0,0,0-1,7.6Z"/><path class="cls-5" d="M552.61,492.67l39.44.52c5.16.07,10.1-4.58,9.86-9.86a10,10,0,0,0-9.86-9.86L552.61,473c-5.16-.06-10.1,4.59-9.86,9.86a10,10,0,0,0,9.86,9.86Z"/><path class="cls-6" d="M369.61,702.93l1.64-29.58c27.94,3.28,47.66-36.16,47.66-36.16l177.48-4.93s4.93,44.37,34.51,42.73l8.22,27.94S524.08,755.52,369.61,702.93Z"/></g></g></svg>