<svg xmlns="http://www.w3.org/2000/svg" viewBox="0 0 1000 1000"><defs><style>.cls-1,.cls-2,.cls-3{fill:#ccc;}.cls-1,.cls-2,.cls-3,.cls-4{stroke:#000;}.cls-1,.cls-2,.cls-4{stroke-linejoin:round;}.cls-1,.cls-3{stroke-width:5.21px;}.cls-2{stroke-width:5.11px;}.cls-3{stroke-miterlimit:10;}.cls-4{fill:none;stroke-width:4.81px;}</style></defs><g id="Tops"><g id="Zip_Up_Hoodie" data-name="Zip Up Hoodie"><polygon class="cls-1" points="804.19 561.05 827.22 586.3 768.65 637.36 741.31 613.24 804.19 561.05"/><polygon class="cls-2" points="579.62 433.88 741.48 621.67 813.57 560.9 600.22 312.33 579.62 433.88"/><polygon class="cls-1" points="195.81 570.66 172.78 595.91 231.35 646.97 258.69 622.86 195.81 570.66"/><polygon class="cls-2" points="420.38 443.49 258.52 631.28 186.43 570.51 399.78 321.94 420.38 443.49"/><path class="cls-3" d="M530.81,720.28c45.89-2.19,95.75-12.14,145.16-35.83L601.42,311.73,517.07,352.1Z"/><path class="cls-3" d="M488,351l-88.89-29.1L329.86,684.45s58,27,139.68,34.42Z"/><polygon class="cls-2" points="386.06 279.72 369.79 299.77 391.09 325.3 489.84 352.1 439.38 288.24 386.06 279.72"/><polygon class="cls-2" points="618.4 283.59 632.83 301.37 611.53 326.9 515.47 352.1 563.27 291.42 618.4 283.59"/><path class="cls-4" d="M472.22,640.42,421,634s-19.22,38.44-46.45,35.24l-1.6,28.83a428.75,428.75,0,0,0,78.29,18.78"/><path class="cls-4" d="M528.28,635.61l65.67-6.4s4.81,43.24,33.64,41.64l8,27.23s-36.28,16.59-95.28,21.46"/></g></g></svg>